<svg width="28" height="20" viewBox="0 0 28 20" fill="none" xmlns="http://www.w3.org/2000/svg">
<path d="M25.7538 0.844971H2.17066C0.97808 0.844971 0.00769043 1.81547 0.00769043 3.00805V16.9354C0.00769043 18.128 0.97808 19.0981 2.17066 19.0981H25.7538C26.9465 19.0981 27.9166 18.128 27.9166 16.9354V3.00805C27.9166 1.81547 26.9465 0.844971 25.7538 0.844971ZM2.17034 1.74327H25.7535C26.4509 1.74327 27.0181 2.31073 27.0181 3.00805V4.00451H0.90557V3.00805C0.905888 2.31031 1.47303 1.74327 2.17034 1.74327ZM27.0183 7.11953H0.905889V4.9025H27.0183V7.11953ZM25.7538 18.1996H2.17066C1.47334 18.1996 0.905889 17.6321 0.905889 16.9352V8.01773H27.0183V16.9352C27.0183 17.6323 26.4509 18.1996 25.7538 18.1996Z" fill="white"/>
<path d="M4.34847 13.2975C3.48514 13.2975 2.78264 14.0003 2.78264 14.8638C2.78264 15.7267 3.48514 16.429 4.34847 16.429C5.21232 16.429 5.91472 15.7267 5.91472 14.8638C5.91472 14.0003 5.21232 13.2975 4.34847 13.2975ZM4.34847 15.5306C3.98041 15.5306 3.68105 15.2314 3.68105 14.8638C3.68105 14.4954 3.98041 14.1958 4.34847 14.1958C4.71684 14.1958 5.01652 14.4954 5.01652 14.8638C5.01652 15.2314 4.71673 15.5306 4.34847 15.5306Z" fill="white"/>
<path d="M20.353 14.4676H7.69787C7.4496 14.4676 7.24872 14.6686 7.24872 14.9168C7.24872 15.1649 7.44971 15.3658 7.69787 15.3658H20.353C20.6013 15.3658 20.802 15.1649 20.802 14.9168C20.802 14.6686 20.6013 14.4676 20.353 14.4676Z" fill="white"/>
</svg>
