<svg width="40" height="220" viewBox="0 0 40 220" fill="none" xmlns="http://www.w3.org/2000/svg">
<rect width="40" height="220" fill="#EDEDED"/>
<rect width="40" height="2" fill="#F04E23"/>
<path d="M20.142 187.188C19.3113 187.188 18.5787 187.067 17.944 186.824C17.3093 186.572 16.782 186.236 16.362 185.816C15.9327 185.387 15.6107 184.892 15.396 184.332C15.1813 183.763 15.074 183.161 15.074 182.526C15.074 181.901 15.1813 181.313 15.396 180.762C15.6107 180.202 15.9327 179.712 16.362 179.292C16.782 178.872 17.3093 178.541 17.944 178.298C18.5787 178.046 19.3113 177.92 20.142 177.92C20.9727 177.92 21.7053 178.046 22.34 178.298C22.9747 178.541 23.5067 178.872 23.936 179.292C24.356 179.712 24.6733 180.202 24.888 180.762C25.1027 181.313 25.21 181.901 25.21 182.526C25.21 183.161 25.1027 183.763 24.888 184.332C24.6733 184.892 24.356 185.387 23.936 185.816C23.5067 186.236 22.9747 186.572 22.34 186.824C21.7053 187.067 20.9727 187.188 20.142 187.188ZM20.142 185.76C20.73 185.76 21.2667 185.685 21.752 185.536C22.228 185.387 22.634 185.177 22.97 184.906C23.306 184.626 23.5673 184.29 23.754 183.898C23.9313 183.497 24.02 183.049 24.02 182.554C24.02 182.059 23.9313 181.616 23.754 181.224C23.5673 180.832 23.306 180.501 22.97 180.23C22.634 179.95 22.228 179.735 21.752 179.586C21.2667 179.437 20.73 179.362 20.142 179.362C19.554 179.362 19.022 179.437 18.546 179.586C18.0607 179.735 17.65 179.95 17.314 180.23C16.978 180.501 16.7213 180.832 16.544 181.224C16.3573 181.616 16.264 182.059 16.264 182.554C16.264 183.049 16.3573 183.497 16.544 183.898C16.7213 184.29 16.978 184.626 17.314 184.906C17.65 185.177 18.0607 185.387 18.546 185.536C19.022 185.685 19.554 185.76 20.142 185.76ZM15.298 168.796L15.298 167.438L25 167.438L25 168.796L20.52 168.796L20.52 173.542L25 173.542L25 174.9L15.298 174.9L15.298 173.542L19.344 173.542L19.344 168.796L15.298 168.796ZM16.46 160.71C16.9827 160.729 17.4913 160.748 17.986 160.766C18.4713 160.785 18.9473 160.813 19.414 160.85C19.8713 160.888 20.3193 160.944 20.758 161.018C21.1967 161.093 21.626 161.196 22.046 161.326C22.466 161.457 22.8627 161.62 23.236 161.816C23.6 162.003 23.922 162.241 24.202 162.53C24.4727 162.81 24.692 163.146 24.86 163.538C25.028 163.921 25.1213 164.374 25.14 164.896L23.964 165.05C23.8893 164.397 23.684 163.893 23.348 163.538C23.012 163.174 22.4987 162.876 21.808 162.642C21.024 162.381 20.0813 162.218 18.98 162.152C17.8693 162.078 16.642 162.04 15.298 162.04L15.298 156.538L25 156.538L25 157.896L16.46 157.896L16.46 160.71ZM25 146.648C24.58 146.807 24.1693 146.956 23.768 147.096C23.3573 147.236 22.942 147.381 22.522 147.53L22.522 151.926L25 152.808L25 154.222C23.9733 153.849 23.026 153.499 22.158 153.172C21.2807 152.845 20.45 152.528 19.666 152.22C18.882 151.903 18.1353 151.59 17.426 151.282C16.7073 150.974 15.998 150.652 15.298 150.316L15.298 149.07C15.998 148.734 16.7073 148.412 17.426 148.104C18.1353 147.796 18.882 147.488 19.666 147.18C20.45 146.863 21.2807 146.541 22.158 146.214C23.026 145.887 23.9733 145.537 25 145.164L25 146.648ZM21.402 147.922C20.59 148.221 19.806 148.519 19.05 148.818C18.2847 149.107 17.552 149.411 16.852 149.728C17.552 150.055 18.2847 150.367 19.05 150.666C19.806 150.955 20.59 151.245 21.402 151.534L21.402 147.922ZM25 142.847L15.298 142.847L15.298 141.517L22.48 141.517C21.9853 141.218 21.4207 140.854 20.786 140.425C20.1513 139.986 19.5073 139.524 18.854 139.039C18.1913 138.544 17.552 138.049 16.936 137.555C16.3107 137.051 15.7647 136.579 15.298 136.141L15.298 135.063L25 135.063L25 136.393L17.426 136.393C17.7247 136.654 18.07 136.939 18.462 137.247C18.854 137.555 19.274 137.872 19.722 138.199C20.1607 138.525 20.618 138.857 21.094 139.193C21.57 139.519 22.0413 139.837 22.508 140.145C22.9653 140.453 23.4087 140.742 23.838 141.013C24.2673 141.274 24.6547 141.507 25 141.713L25 142.847ZM14.36 138.941C14.36 139.529 14.2107 140.009 13.912 140.383C13.6133 140.747 13.198 140.966 12.666 141.041L12.4 140.047C12.6987 139.972 12.9413 139.846 13.128 139.669C13.3147 139.491 13.408 139.249 13.408 138.941C13.408 138.633 13.3147 138.39 13.128 138.213C12.9413 138.035 12.6987 137.909 12.4 137.835L12.666 136.855C13.198 136.929 13.6133 137.149 13.912 137.513C14.2107 137.877 14.36 138.353 14.36 138.941ZM15.298 125.557L15.298 124.199L25 124.199L25 125.557L20.52 125.557L20.52 130.303L25 130.303L25 131.661L15.298 131.661L15.298 130.303L19.344 130.303L19.344 125.557L15.298 125.557ZM23.656 112.196C23.432 112.289 23.1473 112.415 22.802 112.574C22.4567 112.723 22.0833 112.887 21.682 113.064C21.2807 113.241 20.87 113.433 20.45 113.638C20.0207 113.834 19.6193 114.021 19.246 114.198C18.8633 114.375 18.5227 114.543 18.224 114.702C17.9253 114.851 17.6967 114.973 17.538 115.066C18.6393 115.169 19.834 115.253 21.122 115.318C22.4007 115.383 23.6933 115.439 25 115.486L25 116.816C24.16 116.779 23.3153 116.737 22.466 116.69C21.6073 116.643 20.7673 116.592 19.946 116.536C19.1153 116.471 18.308 116.405 17.524 116.34C16.74 116.265 15.998 116.186 15.298 116.102L15.298 114.912C15.7087 114.66 16.194 114.389 16.754 114.1C17.314 113.811 17.902 113.521 18.518 113.232C19.1247 112.943 19.736 112.663 20.352 112.392C20.9587 112.121 21.514 111.874 22.018 111.65C21.514 111.426 20.9587 111.179 20.352 110.908C19.736 110.637 19.1247 110.357 18.518 110.068C17.902 109.779 17.314 109.489 16.754 109.2C16.194 108.911 15.7087 108.64 15.298 108.388L15.298 107.198C18.4247 106.881 21.6587 106.643 25 106.484L25 107.814C23.6933 107.861 22.4007 107.917 21.122 107.982C19.834 108.047 18.6393 108.131 17.538 108.234C17.6967 108.327 17.9253 108.453 18.224 108.612C18.5227 108.761 18.8633 108.925 19.246 109.102C19.6193 109.279 20.0207 109.471 20.45 109.676C20.87 109.872 21.2807 110.059 21.682 110.236C22.0833 110.413 22.4567 110.581 22.802 110.74C23.1473 110.889 23.432 111.011 23.656 111.104L23.656 112.196ZM25 96.8726C24.58 97.0313 24.1693 97.1806 23.768 97.3206C23.3573 97.4606 22.942 97.6053 22.522 97.7546L22.522 102.151L25 103.033L25 104.447C23.9733 104.073 23.026 103.723 22.158 103.397C21.2807 103.07 20.45 102.753 19.666 102.445C18.882 102.127 18.1353 101.815 17.426 101.507C16.7073 101.199 15.998 100.877 15.298 100.541L15.298 99.2946C15.998 98.9586 16.7073 98.6366 17.426 98.3286C18.1353 98.0206 18.882 97.7126 19.666 97.4046C20.45 97.0873 21.2807 96.7653 22.158 96.4386C23.026 96.1119 23.9733 95.7619 25 95.3886L25 96.8726ZM21.402 98.1466C20.59 98.4453 19.806 98.7439 19.05 99.0426C18.2847 99.3319 17.552 99.6353 16.852 99.9526C17.552 100.279 18.2847 100.592 19.05 100.891C19.806 101.18 20.59 101.469 21.402 101.759L21.402 98.1466ZM15.298 87.3734L16.474 87.3734L16.474 91.7134L25 91.7134L25 93.0714L15.298 93.0714L15.298 87.3734ZM25 79.3687C24.58 79.5274 24.1693 79.6767 23.768 79.8167C23.3573 79.9567 22.942 80.1014 22.522 80.2507L22.522 84.6467L25 85.5287L25 86.9427C23.9733 86.5694 23.026 86.2194 22.158 85.8927C21.2807 85.566 20.45 85.2487 19.666 84.9407C18.882 84.6234 18.1353 84.3107 17.426 84.0027C16.7073 83.6947 15.998 83.3727 15.298 83.0367L15.298 81.7907C15.998 81.4547 16.7073 81.1327 17.426 80.8247C18.1353 80.5167 18.882 80.2087 19.666 79.9007C20.45 79.5834 21.2807 79.2614 22.158 78.9347C23.026 78.608 23.9733 78.258 25 77.8847L25 79.3687ZM21.402 80.6427C20.59 80.9414 19.806 81.24 19.05 81.5387C18.2847 81.828 17.552 82.1314 16.852 82.4487C17.552 82.7754 18.2847 83.088 19.05 83.3867C19.806 83.676 20.59 83.9654 21.402 84.2547L21.402 80.6427ZM19.33 74.5227L19.33 73.7947C19.33 73.4867 19.3067 73.1741 19.26 72.8567C19.2133 72.5394 19.1293 72.2501 19.008 71.9887C18.8773 71.7274 18.7047 71.5127 18.49 71.3447C18.2753 71.1767 18.0047 71.0927 17.678 71.0927C17.258 71.0927 16.9173 71.2747 16.656 71.6387C16.3853 71.9934 16.25 72.4694 16.25 73.0667C16.25 73.5801 16.3107 74.0421 16.432 74.4527C16.544 74.8634 16.6607 75.1667 16.782 75.3627L15.676 75.7967C15.6013 75.6847 15.5313 75.5354 15.466 75.3487C15.3913 75.1527 15.326 74.9381 15.27 74.7047C15.214 74.4621 15.172 74.2007 15.144 73.9207C15.1067 73.6407 15.088 73.3514 15.088 73.0527C15.088 72.5674 15.1393 72.1194 15.242 71.7087C15.3447 71.2981 15.5033 70.9434 15.718 70.6447C15.9233 70.3461 16.1893 70.1127 16.516 69.9447C16.8333 69.7767 17.2113 69.6927 17.65 69.6927C18.098 69.6927 18.518 69.8374 18.91 70.1267C19.302 70.4067 19.5867 70.8221 19.764 71.3727C19.8387 71.0927 19.946 70.8267 20.086 70.5747C20.2167 70.3134 20.3893 70.0894 20.604 69.9027C20.8093 69.7067 21.052 69.5527 21.332 69.4407C21.612 69.3194 21.9387 69.2587 22.312 69.2587C22.8253 69.2587 23.2687 69.3567 23.642 69.5527C24.006 69.7394 24.3047 70.0054 24.538 70.3507C24.7713 70.6867 24.9393 71.0974 25.042 71.5827C25.154 72.0681 25.21 72.6047 25.21 73.1927C25.21 73.5474 25.182 73.8834 25.126 74.2007C25.0793 74.5181 25.0233 74.8027 24.958 75.0547C24.8833 75.3067 24.804 75.5261 24.72 75.7127C24.636 75.8994 24.566 76.0441 24.51 76.1467L23.39 75.7407C23.446 75.6381 23.5113 75.5027 23.586 75.3347C23.6607 75.1574 23.7307 74.9614 23.796 74.7467C23.8613 74.5321 23.9173 74.2941 23.964 74.0327C24.0107 73.7714 24.034 73.4961 24.034 73.2067C24.034 72.4134 23.9033 71.7974 23.642 71.3587C23.3713 70.9107 22.9187 70.6867 22.284 70.6867C21.9107 70.6867 21.6073 70.7661 21.374 70.9247C21.1313 71.0741 20.94 71.2841 20.8 71.5547C20.66 71.8161 20.5667 72.1287 20.52 72.4927C20.464 72.8474 20.436 73.2347 20.436 73.6547L20.436 74.5227L19.33 74.5227ZM25 66.337L15.298 66.337L15.298 65.007L22.48 65.007C21.9853 64.7083 21.4207 64.3443 20.786 63.915C20.1513 63.4763 19.5073 63.0143 18.854 62.529C18.1913 62.0343 17.552 61.5397 16.936 61.045C16.3107 60.541 15.7647 60.0697 15.298 59.631L15.298 58.553L25 58.553L25 59.883L17.426 59.883C17.7247 60.1443 18.07 60.429 18.462 60.737C18.854 61.045 19.274 61.3623 19.722 61.689C20.1607 62.0157 20.618 62.347 21.094 62.683C21.57 63.0097 22.0413 63.327 22.508 63.635C22.9653 63.943 23.4087 64.2323 23.838 64.503C24.2673 64.7643 24.6547 64.9977 25 65.203L25 66.337ZM15.298 49.0475L15.298 47.6895L25 47.6895L25 49.0475L20.52 49.0475L20.52 53.7935L25 53.7935L25 55.1515L15.298 55.1515L15.298 53.7935L19.344 53.7935L19.344 49.0475L15.298 49.0475ZM21.962 38.9604C21.57 38.9604 21.2433 39.0304 20.982 39.1704C20.7207 39.3104 20.5153 39.511 20.366 39.7724C20.2167 40.0337 20.114 40.3464 20.058 40.7104C19.9927 41.065 19.96 41.457 19.96 41.8864C19.96 42.045 19.96 42.2177 19.96 42.4044C19.96 42.5817 19.9693 42.7544 19.988 42.9224L23.866 42.9224C23.894 42.605 23.908 42.367 23.908 42.2084C23.908 42.0497 23.908 41.863 23.908 41.6484C23.908 41.303 23.88 40.967 23.824 40.6404C23.768 40.3137 23.6653 40.029 23.516 39.7864C23.3667 39.5344 23.1707 39.3337 22.928 39.1844C22.676 39.035 22.354 38.9604 21.962 38.9604ZM21.962 37.5324C22.4847 37.5324 22.942 37.6304 23.334 37.8264C23.726 38.0224 24.0527 38.3024 24.314 38.6664C24.5753 39.0304 24.7713 39.4737 24.902 39.9964C25.0327 40.519 25.098 41.107 25.098 41.7604C25.098 42.1524 25.0793 42.5724 25.042 43.0204C25.014 43.4684 24.9533 43.8884 24.86 44.2804L15.298 44.2804L15.298 42.9224L18.826 42.9224C18.8073 42.7544 18.798 42.577 18.798 42.3904C18.7887 42.1944 18.784 42.0124 18.784 41.8444C18.784 38.9697 19.8433 37.5324 21.962 37.5324ZM15.298 36.0624L15.298 34.7044L25 34.7044L25 36.0624L15.298 36.0624Z" fill="black"/>
</svg>
