<svg width="22" height="23" viewBox="0 0 22 23" fill="none" xmlns="http://www.w3.org/2000/svg">
<path d="M10.7357 17.2443C9.94097 17.7348 8.78401 17.4777 8.30825 16.7062L4.86779 11.1305C4.38408 10.3466 4.62789 9.31564 5.41118 8.83235L8.42051 6.97437L5.77086 2.6814L2.76334 4.5379C-0.186946 6.35879 -0.0907974 11.127 2.99751 16.133C4.4109 18.4239 6.19033 20.2459 8.00772 21.2637C9.07786 21.8627 10.1325 22.1637 11.115 22.1634C11.9398 22.1634 12.7139 21.9515 13.4039 21.5255L16.2985 19.74L13.6489 15.4458L10.7357 17.2443ZM12.932 20.7612C11.3664 21.7275 9.62856 21.1418 8.44669 20.4798C6.76033 19.5357 5.09655 17.8243 3.76213 15.6613C0.95157 11.1051 0.735104 6.84536 3.23539 5.30211L5.47807 3.91755L7.18425 6.68189L4.93913 8.06794C3.73426 8.81147 3.35931 10.3969 4.10305 11.6021L7.5432 17.1775C8.27867 18.3702 9.99079 18.758 11.2069 18.0085L13.3559 16.682L15.0621 19.4466L12.932 20.7612Z" fill="white"/>
<path d="M13.8326 9.15472C14.4988 10.1776 14.6591 11.4307 14.272 12.5932L15.1244 12.877C15.5984 11.4535 15.402 9.91797 14.5858 8.66486C13.7446 7.36956 12.319 6.54185 10.7722 6.45026L10.7191 7.34708C12.001 7.42277 13.1359 8.08161 13.8326 9.15472Z" fill="white"/>
<path d="M11.38 3.47844L11.2773 4.3707C13.3641 4.61059 15.2163 5.75557 16.3596 7.51147C17.4665 9.21373 17.7803 11.3098 17.2198 13.263L18.0834 13.5106C18.7155 11.3074 18.3619 8.94214 17.1126 7.02162C15.8228 5.04034 13.7336 3.74886 11.38 3.47844Z" fill="white"/>
<path d="M19.3512 5.56495C17.6813 2.99672 14.9831 1.28153 11.9486 0.859619L11.825 1.74955C14.6012 2.13552 17.0701 3.70485 18.5982 6.05481C20.0954 8.35474 20.5445 11.1952 19.8307 13.8486L20.6981 14.0818C21.4781 11.1827 20.9871 8.07817 19.3512 5.56495Z" fill="white"/>
</svg>
