<svg width="30" height="30" viewBox="0 0 30 30" fill="none" xmlns="http://www.w3.org/2000/svg">
<path d="M0 15C0 6.71573 6.71573 0 15 0C23.2843 0 30 6.71573 30 15C30 23.2843 23.2843 30 15 30C6.71573 30 0 23.2843 0 15Z" fill="#6B6868"/>
<path d="M13.6713 7.575C14.313 6.97917 15.2296 6.75 16.1005 6.75H18.8505V9.6375H17.063C16.6963 9.59167 16.3296 9.9125 16.238 10.2792V12.2042H18.8505C18.8046 13.1208 18.6671 14.0833 18.5296 15H16.238V23.25H12.8463V15H11.1963V12.25H12.8463V9.54583C12.8921 8.76667 13.1671 8.03333 13.6713 7.575Z" fill="white"/>
</svg>
