<svg width="30" height="30" viewBox="0 0 30 30" fill="none" xmlns="http://www.w3.org/2000/svg">
<path d="M1.67871 29.4475C1.67871 29.7113 1.89246 29.9225 2.15496 29.9225H27.8462C28.11 29.9225 28.3225 29.7113 28.3225 29.4475L25.8225 8.44875C25.8225 8.1875 25.6112 7.97625 25.3525 7.9725L20.5362 7.93375V5.5975C20.5362 2.51125 18.0275 0 14.9412 0C11.855 0 9.34496 2.51125 9.34496 5.5975V7.80875L4.65996 7.76875C4.52996 7.77 4.40996 7.8175 4.32121 7.905C4.23121 7.995 4.17871 8.1175 4.17871 8.245L1.67871 29.4475ZM10.2975 5.5975C10.2975 3.0375 12.38 0.9525 14.94 0.9525C17.5012 0.9525 19.5837 3.03625 19.5837 5.5975V7.92125L10.2962 7.8175V5.5975H10.2975Z" fill="#010101"/>
<path d="M19.9386 10.9352C20.6538 10.9352 21.2336 10.3554 21.2336 9.64021C21.2336 8.92501 20.6538 8.34521 19.9386 8.34521C19.2233 8.34521 18.6436 8.92501 18.6436 9.64021C18.6436 10.3554 19.2233 10.9352 19.9386 10.9352Z" fill="white"/>
<path d="M9.76863 10.9352C10.4838 10.9352 11.0636 10.3554 11.0636 9.64021C11.0636 8.92501 10.4838 8.34521 9.76863 8.34521C9.05342 8.34521 8.47363 8.92501 8.47363 9.64021C8.47363 10.3554 9.05342 10.9352 9.76863 10.9352Z" fill="white"/>
</svg>
