<svg width="42" height="42" viewBox="0 0 42 42" fill="none" xmlns="http://www.w3.org/2000/svg">
<path d="M40.0689 21.0015L41.9115 16.1954C42.1136 15.6652 41.9561 15.0641 41.5125 14.7045L37.5175 11.4655L36.7091 6.38123C36.6198 5.81952 36.1789 5.38117 35.6172 5.29193L30.5329 4.48348L27.2965 0.485875C26.9395 0.0422803 26.3253 -0.115209 25.8082 0.0869023L20.9995 1.93215L16.1935 0.0895271C15.6606 -0.115209 15.0648 0.0475299 14.7052 0.4885L11.4662 4.48611L6.3819 5.29455C5.82282 5.3838 5.38185 5.82477 5.2926 6.38385L4.48416 11.4681L0.486557 14.7072C0.0455876 15.0641 -0.114526 15.6652 0.0875847 16.1954L1.93021 21.0015L0.0875847 25.8075C-0.117151 26.3378 0.0455876 26.9388 0.486557 27.2958L4.48416 30.5322L5.2926 35.6165C5.38185 36.1782 5.82019 36.6192 6.3819 36.7084L11.4662 37.5169L14.7052 41.5119C15.0648 41.9581 15.6659 42.1156 16.1961 41.9108L20.9995 40.0708L25.8056 41.9135C25.9578 41.9712 26.1153 42.0001 26.2754 42.0001C26.6613 42.0001 27.0419 41.8295 27.2965 41.5119L30.5329 37.5169L35.6172 36.7084C36.1789 36.6192 36.6198 36.1782 36.7091 35.6165L37.5175 30.5322L41.5125 27.2958C41.9561 26.9362 42.1136 26.3378 41.9115 25.8075L40.0689 21.0015Z" fill="#F04E23"/>
<path d="M14.9665 25C14.7345 24.536 14.4785 24.068 14.1985 23.596C13.9265 23.116 13.6105 22.628 13.2505 22.132C13.1385 22.276 12.9945 22.476 12.8185 22.732C12.6505 22.988 12.4785 23.26 12.3025 23.548C12.1345 23.836 11.9745 24.112 11.8225 24.376C11.6705 24.64 11.5585 24.848 11.4865 25H9.35047C9.70247 24.352 10.1105 23.672 10.5745 22.96C11.0465 22.248 11.5705 21.492 12.1465 20.692L9.47047 16.684H11.7385L13.3585 19.276L14.9425 16.684H17.0785L14.4385 20.716C15.1105 21.588 15.6745 22.396 16.1305 23.14C16.5865 23.876 16.9465 24.496 17.2105 25H14.9665ZM18.2881 25V16.684H20.1481V21.592C20.4361 21.16 20.7441 20.712 21.0721 20.248C21.4001 19.776 21.7281 19.324 22.0561 18.892C22.3921 18.452 22.7201 18.04 23.0401 17.656C23.3601 17.272 23.6521 16.948 23.9161 16.684H25.4401V25H23.5921V19.552C22.8881 20.376 22.2241 21.252 21.6001 22.18C20.9761 23.108 20.3961 24.048 19.8601 25H18.2881ZM33.5264 16.684V18.28H31.0184V25H29.1464V18.28H26.6384V16.684H33.5264Z" fill="white"/>
</svg>
