<svg width="32" height="64" viewBox="0 0 32 64" fill="none" xmlns="http://www.w3.org/2000/svg">
<path d="M0.319885 3.05176e-05L0.319889 63.1429" stroke="#F04E23"/>
<path d="M15.6 36.3138H11.7V49H5V18H11.7V30.4H14.8L22.7 18H30.9L20.9 32.6892L32 49H24L15.6 36.3138Z" fill="black"/>
<path d="M5.53571 61.8665V56.867H6.13271V59.1745C6.33171 58.9822 6.53072 58.7899 6.72972 58.5976C6.92872 58.4053 7.22722 58.213 7.42622 57.9246C7.62522 57.7323 7.82423 57.54 8.02323 57.3477C8.22223 57.1554 8.32173 56.9631 8.52073 56.867H9.31674C9.11774 57.0593 9.01824 57.2516 8.81924 57.4439C8.62023 57.6362 8.42123 57.8284 8.12273 58.1169C7.92373 58.3092 7.72473 58.5015 7.42622 58.6937C7.12772 58.886 7.02822 59.0783 6.82922 59.1745C7.02822 59.2706 7.32672 59.4629 7.52572 59.6552C7.82423 59.8475 8.02323 60.1359 8.22223 60.3282C8.42123 60.6166 8.71973 60.8089 8.91874 61.0973C9.11774 61.3858 9.31674 61.5781 9.41624 61.7704H8.62023C8.42123 61.5781 8.32173 61.2896 8.02323 61.0012C7.72473 60.7128 7.62522 60.5205 7.32672 60.3282C7.12772 60.1359 6.82922 59.9436 6.63022 59.7513C6.43121 59.559 6.13271 59.4629 6.03321 59.2706V61.7704H5.53571V61.8665Z" fill="black"/>
<path d="M14.0937 57.4439V57.6362C14.0937 57.8285 14.0937 58.0207 14.0937 58.3092C14.0937 58.5015 14.0937 58.7899 14.0937 58.9822C14.0937 59.1745 13.9942 59.4629 13.9942 59.6552C13.9942 59.8475 13.8947 60.1359 13.7952 60.3282C13.6957 60.5205 13.5962 60.7128 13.4967 60.9051C13.3972 61.0974 13.2977 61.2897 13.0987 61.3858C12.8997 61.4819 12.8002 61.6742 12.6012 61.7704C12.4022 61.8665 12.2032 61.9627 11.9047 61.9627L11.8052 61.4819C12.1037 61.3858 12.4022 61.2896 12.6012 61.0974C12.8002 60.9051 12.9992 60.6166 13.0987 60.2321C13.1982 59.8475 13.2977 59.4629 13.3972 58.9822C13.3972 58.5015 13.4967 58.0207 13.4967 57.4439V56.867H16.6807V61.8665H15.9842V57.4439H14.0937Z" fill="black"/>
<path d="M21.5561 61.9627C21.3571 61.5781 21.1581 61.1935 20.9591 60.7128C20.7601 60.2321 20.5611 59.8475 20.3621 59.4629C20.1631 58.9822 20.0636 58.5976 19.8646 58.213C19.7651 57.8284 19.5661 57.3477 19.4666 56.9632H20.1631C20.2626 57.2516 20.3621 57.6362 20.4616 57.9246C20.5611 58.213 20.6606 58.6937 20.8596 58.9822C20.9591 59.3668 21.1581 59.7513 21.3571 60.1359C21.5561 60.5205 21.7551 60.9051 21.9541 61.2896C22.0536 60.9051 22.2526 60.5205 22.3521 60.1359C22.4516 59.7513 22.5511 59.4629 22.6506 59.0783C22.7501 58.6937 22.8496 58.4053 22.9491 58.0207C23.0486 57.6362 23.1481 57.2516 23.2476 56.867H23.8446C23.6456 57.8284 23.3471 58.6937 23.1481 59.559C22.8496 60.4243 22.5511 61.2896 22.2526 61.9627C22.1531 62.2511 21.9541 62.5395 21.8546 62.7318C21.7551 62.9241 21.5561 63.1164 21.4566 63.2125C21.2576 63.3087 21.0586 63.4048 20.8596 63.501C20.6606 63.5971 20.3621 63.5971 20.0636 63.5971C19.8646 63.5971 19.7651 63.5971 19.5661 63.501C19.4666 63.501 19.3671 63.4048 19.2676 63.4048L19.3671 62.9241C19.3671 62.9241 19.4666 62.9241 19.5661 63.0202C19.6656 63.0202 19.8646 63.1164 19.9641 63.1164C20.1631 63.1164 20.3621 63.1164 20.4616 63.0202C20.5611 62.9241 20.7601 62.9241 20.8596 62.828C20.9591 62.7318 21.0586 62.6357 21.1581 62.4434C21.2576 62.2511 21.4566 62.1549 21.5561 61.9627Z" fill="black"/>
<path d="M27.1264 57.6362C27.2259 57.54 27.3254 57.4439 27.5244 57.3477C27.7234 57.2516 27.8229 57.1554 28.0219 57.1554C28.2209 57.0593 28.3204 57.0593 28.5194 57.0593C28.7184 57.0593 28.8179 57.0593 28.9174 57.0593C29.3154 57.0593 29.6139 57.1554 29.9124 57.2516C30.2109 57.3477 30.4099 57.54 30.6089 57.7323C30.8079 57.9246 30.9074 58.213 31.0069 58.5015C31.1064 58.7899 31.1064 59.1745 31.1064 59.559C31.1064 59.8475 31.1064 60.1359 31.0069 60.4244C30.9074 60.7128 30.8079 61.0012 30.6089 61.1935C30.4099 61.4819 30.2109 61.6742 29.9124 61.7704C29.6139 61.8665 29.2159 61.9627 28.8179 61.9627C28.3204 61.9627 27.9224 61.8665 27.6239 61.6742C27.3254 61.4819 27.1264 61.2897 26.9274 60.9051C26.7284 60.6166 26.6289 60.2321 26.5294 59.9436C26.4299 59.6552 26.4299 59.1745 26.4299 58.7899C26.4299 58.3092 26.4299 57.7323 26.5294 57.2516C26.6289 56.7709 26.7284 56.3863 26.9274 56.0017C27.1264 55.6171 27.4249 55.3287 27.8229 55.0403C28.2209 54.7518 28.7184 54.6557 29.4149 54.5595C29.6139 54.5595 29.8129 54.5595 29.9124 54.4634C30.0119 54.4634 30.1114 54.4634 30.2109 54.4634C30.3104 54.4634 30.4099 54.4634 30.4099 54.4634C30.4099 54.4634 30.5094 54.4634 30.6089 54.4634L30.7084 55.0403C30.6089 55.0403 30.5094 55.1364 30.4099 55.1364C30.3104 55.1364 30.0119 55.2325 29.6139 55.2325C29.2159 55.2325 28.9174 55.3287 28.6189 55.4248C28.3204 55.521 28.1214 55.7133 27.9224 55.9055C27.7234 56.0978 27.5244 56.2901 27.4249 56.5786C27.3254 56.867 27.2259 57.2516 27.1264 57.6362ZM27.1264 58.3092C27.1264 58.4053 27.1264 58.4053 27.1264 58.5976C27.1264 58.7899 27.1264 58.7899 27.1264 58.886C27.1264 59.1745 27.1264 59.4629 27.2259 59.7513C27.2259 60.0398 27.3254 60.3282 27.5244 60.5205C27.6239 60.7128 27.8229 60.9051 28.0219 61.0974C28.2209 61.1935 28.5194 61.2897 28.8179 61.2897C29.1164 61.2897 29.3154 61.1935 29.5144 61.0974C29.7134 61.0012 29.9124 60.8089 30.0119 60.6166C30.1114 60.4243 30.2109 60.2321 30.3104 59.9436C30.4099 59.7513 30.4099 59.4629 30.4099 59.1745C30.4099 58.886 30.4099 58.6937 30.3104 58.4053C30.3104 58.213 30.2109 57.9246 30.0119 57.8284C29.9124 57.6362 29.7134 57.54 29.5144 57.4439C29.3154 57.3477 29.0169 57.2516 28.7184 57.2516C28.5194 57.2516 28.4199 57.2516 28.2209 57.3477C28.0219 57.4439 27.9224 57.4439 27.7234 57.54C27.6239 57.6362 27.4249 57.7323 27.3254 57.8284C27.2259 57.9246 27.2259 58.213 27.1264 58.3092Z" fill="black"/>
</svg>
