<svg width="400" height="119" viewBox="0 0 400 119" fill="none" xmlns="http://www.w3.org/2000/svg">
<g clip-path="url(#clip0)">
<path d="M0.5 0V119" stroke="#F04E23"/>
<path d="M12.388 116.379H11.6704V113.396H8.18071V116.379H7.46182V109.877H8.18071V112.792H11.6704V109.877H12.388V116.379Z" fill="#F04E23"/>
<path d="M24.3923 116.495C23.9707 116.495 23.582 116.418 23.2287 116.261C22.8741 116.103 22.5658 115.882 22.3087 115.599C22.0504 115.319 21.8506 114.981 21.7093 114.592C21.5643 114.205 21.4911 113.777 21.4911 113.313V113.058C21.4911 112.554 21.5679 112.101 21.7178 111.696C21.8664 111.288 22.0711 110.942 22.3246 110.657C22.5805 110.369 22.8741 110.148 23.2092 109.992C23.5418 109.837 23.8952 109.757 24.2644 109.757C24.6762 109.757 25.0405 109.833 25.3585 109.981C25.679 110.129 25.9446 110.335 26.1627 110.598C26.3808 110.866 26.5453 111.179 26.6562 111.543C26.7659 111.905 26.8243 112.305 26.8243 112.738V113.179H22.2027V113.313C22.2027 113.672 22.2576 114.004 22.3672 114.321C22.4732 114.634 22.628 114.907 22.8193 115.138C23.0167 115.371 23.2506 115.557 23.5199 115.69C23.794 115.823 24.095 115.889 24.4228 115.889C24.8078 115.889 25.1465 115.818 25.439 115.68C25.7314 115.542 25.9982 115.314 26.237 115.006L26.6842 115.35C26.5782 115.503 26.4527 115.653 26.3101 115.792C26.1688 115.929 26.0031 116.052 25.8179 116.157C25.6302 116.262 25.4182 116.344 25.1831 116.406C24.9479 116.468 24.6859 116.495 24.3923 116.495ZM24.2644 110.37C23.9926 110.37 23.7416 110.423 23.5101 110.527C23.2786 110.63 23.0776 110.779 22.896 110.968C22.7206 111.162 22.5719 111.395 22.4598 111.664C22.3453 111.934 22.2722 112.232 22.2308 112.559H26.1152V112.482C26.1054 112.21 26.064 111.946 25.9848 111.691C25.9056 111.437 25.7886 111.209 25.6363 111.014C25.4816 110.816 25.2927 110.66 25.0637 110.543C24.8346 110.429 24.5678 110.37 24.2644 110.37Z" fill="#F04E23"/>
<path d="M39.4025 115.403L41.9746 109.875H42.8605V116.376H42.1416V111.039L39.6547 116.376H39.1454L36.6061 110.917V116.376H35.8945V109.875H36.834L39.4025 115.403Z" fill="#F04E23"/>
<path d="M54.8805 116.495C54.4565 116.495 54.0666 116.418 53.7169 116.261C53.3599 116.103 53.0528 115.882 52.7957 115.599C52.5386 115.319 52.3388 114.981 52.1938 114.592C52.0488 114.205 51.9769 113.777 51.9769 113.313V113.058C51.9769 112.554 52.0537 112.101 52.2036 111.696C52.3534 111.288 52.5557 110.942 52.8104 110.657C53.065 110.369 53.3599 110.148 53.6962 109.992C54.0264 109.837 54.3822 109.757 54.7501 109.757C55.1595 109.757 55.5263 109.833 55.8443 109.981C56.1623 110.129 56.4316 110.335 56.6485 110.598C56.8678 110.866 57.0299 111.179 57.1383 111.543C57.2529 111.905 57.3101 112.305 57.3101 112.738V113.179H52.6909V113.313C52.6909 113.672 52.7433 114.004 52.8506 114.321C52.9602 114.634 53.1101 114.907 53.305 115.138C53.5024 115.371 53.7339 115.557 54.0093 115.69C54.2786 115.823 54.5783 115.889 54.911 115.889C55.2924 115.889 55.6323 115.818 55.9247 115.68C56.2172 115.542 56.484 115.314 56.7192 115.006L57.1688 115.35C57.0616 115.503 56.9385 115.653 56.7947 115.792C56.6546 115.929 56.4901 116.052 56.3025 116.157C56.1148 116.262 55.9052 116.344 55.6689 116.406C55.4325 116.468 55.1705 116.495 54.8805 116.495ZM54.7465 110.37C54.4748 110.37 54.225 110.423 53.9947 110.527C53.762 110.63 53.5597 110.779 53.3806 110.968C53.2027 111.162 53.0565 111.395 52.9432 111.664C52.8311 111.934 52.7531 112.232 52.7141 112.559H56.5985V112.482C56.5912 112.21 56.5486 111.946 56.4682 111.691C56.3902 111.437 56.2708 111.209 56.116 111.014C55.9662 110.816 55.7761 110.66 55.547 110.543C55.3179 110.425 55.0487 110.37 54.7465 110.37Z" fill="#F04E23"/>
<path d="M66.3511 109.876H67.0675V115.77H70.556V109.876H71.2749V115.77H71.934L71.8792 118.303H71.22V116.377H66.3511V109.876Z" fill="#F04E23"/>
<path d="M82.626 113.396H81.6318V116.379H80.908V109.877H81.6318V112.762H82.615L84.9898 109.877H85.8915L83.2328 113.031L86.1839 116.379H85.2396L82.626 113.396Z" fill="#F04E23"/>
<path d="M99.0569 109.876H99.7734V116.377H99.0569V111.033L95.5612 116.379H94.8496V109.877H95.5612V115.224L99.0569 109.876Z" fill="#F04E23"/>
<path d="M111.781 116.495C111.355 116.495 110.97 116.418 110.615 116.261C110.261 116.105 109.954 115.882 109.694 115.599C109.437 115.319 109.237 114.981 109.095 114.592C108.95 114.205 108.878 113.777 108.878 113.313V113.058C108.878 112.554 108.954 112.101 109.102 111.696C109.252 111.288 109.456 110.942 109.711 110.657C109.966 110.369 110.261 110.148 110.594 109.992C110.928 109.837 111.28 109.757 111.651 109.757C112.063 109.757 112.425 109.833 112.745 109.981C113.062 110.129 113.33 110.335 113.549 110.598C113.766 110.866 113.932 111.179 114.042 111.543C114.151 111.905 114.211 112.305 114.211 112.738V113.179H109.592V113.313C109.592 113.672 109.644 114.004 109.751 114.321C109.861 114.634 110.013 114.907 110.206 115.138C110.403 115.371 110.637 115.557 110.905 115.69C111.179 115.823 111.479 115.889 111.809 115.889C112.192 115.889 112.533 115.818 112.823 115.68C113.118 115.542 113.382 115.314 113.622 115.006L114.07 115.35C113.962 115.503 113.837 115.653 113.698 115.792C113.555 115.929 113.386 116.052 113.203 116.157C113.016 116.262 112.806 116.344 112.57 116.406C112.336 116.468 112.071 116.495 111.781 116.495ZM111.651 110.37C111.379 110.37 111.127 110.423 110.897 110.527C110.666 110.63 110.462 110.779 110.283 110.968C110.106 111.162 109.958 111.395 109.848 111.664C109.733 111.934 109.657 112.232 109.617 112.559H113.502V112.482C113.494 112.21 113.452 111.946 113.374 111.691C113.293 111.437 113.174 111.209 113.024 111.014C112.867 110.816 112.679 110.66 112.453 110.543C112.219 110.429 111.953 110.37 111.651 110.37Z" fill="#F04E23"/>
<path d="M140.075 115.403L142.647 109.875H143.535V116.376H142.814V111.039L140.327 116.376H139.815L137.279 110.917V116.376H136.567V109.875H137.505L140.075 115.403Z" fill="#F04E23"/>
<path d="M157.133 116.379C157.093 116.265 157.062 116.129 157.041 115.964C157.019 115.804 157.006 115.636 156.996 115.47C156.886 115.608 156.763 115.743 156.614 115.866C156.467 115.992 156.3 116.099 156.117 116.192C155.934 116.284 155.735 116.359 155.513 116.414C155.294 116.472 155.056 116.496 154.801 116.496C154.485 116.496 154.199 116.452 153.942 116.362C153.685 116.269 153.466 116.139 153.286 115.975C153.105 115.811 152.961 115.612 152.862 115.389C152.762 115.165 152.712 114.918 152.712 114.655C152.712 114.335 152.781 114.052 152.916 113.798C153.052 113.545 153.245 113.328 153.501 113.151C153.756 112.972 154.068 112.835 154.432 112.742C154.796 112.649 155.208 112.599 155.663 112.599H156.991V111.861C156.991 111.397 156.851 111.032 156.562 110.765C156.279 110.497 155.863 110.364 155.316 110.364C155.066 110.364 154.834 110.397 154.623 110.468C154.411 110.535 154.229 110.628 154.076 110.748C153.922 110.869 153.802 111.008 153.717 111.168C153.632 111.326 153.589 111.497 153.589 111.674L152.873 111.669C152.873 111.426 152.932 111.186 153.05 110.957C153.17 110.731 153.336 110.527 153.555 110.351C153.774 110.172 154.034 110.029 154.341 109.921C154.645 109.81 154.983 109.756 155.352 109.756C155.697 109.756 156.014 109.8 156.301 109.891C156.589 109.975 156.836 110.11 157.043 110.283C157.255 110.462 157.415 110.68 157.531 110.943C157.645 111.209 157.705 111.518 157.705 111.871V115.016C157.705 115.132 157.71 115.245 157.717 115.365C157.724 115.485 157.737 115.602 157.752 115.712C157.774 115.826 157.793 115.932 157.819 116.037C157.844 116.139 157.869 116.227 157.9 116.303V116.379H157.133V116.379ZM154.882 115.861C155.144 115.861 155.381 115.826 155.606 115.761C155.825 115.696 156.027 115.603 156.205 115.486C156.383 115.37 156.538 115.237 156.672 115.082C156.802 114.927 156.912 114.76 156.988 114.578V113.149H155.763C155.396 113.149 155.071 113.182 154.777 113.247C154.489 113.315 154.243 113.412 154.043 113.532C153.844 113.658 153.691 113.809 153.587 113.987C153.479 114.166 153.429 114.368 153.429 114.589C153.429 114.768 153.46 114.93 153.529 115.083C153.599 115.239 153.694 115.372 153.819 115.486C153.946 115.602 154.098 115.695 154.276 115.757C154.455 115.826 154.658 115.861 154.882 115.861Z" fill="#F04E23"/>
<path d="M171.241 110.495H167.968V116.379H167.249V109.877H171.237V110.496H171.241V110.495Z" fill="#F04E23"/>
<path d="M184.047 116.379C184.009 116.265 183.975 116.129 183.954 115.964C183.932 115.804 183.919 115.636 183.909 115.47C183.799 115.608 183.676 115.743 183.526 115.866C183.381 115.992 183.215 116.099 183.032 116.192C182.849 116.284 182.647 116.359 182.427 116.414C182.208 116.472 181.97 116.496 181.716 116.496C181.399 116.496 181.114 116.452 180.857 116.362C180.6 116.269 180.378 116.139 180.2 115.975C180.02 115.807 179.878 115.612 179.778 115.389C179.676 115.164 179.626 114.918 179.626 114.655C179.626 114.335 179.696 114.052 179.831 113.798C179.966 113.545 180.161 113.328 180.416 113.151C180.67 112.972 180.98 112.835 181.349 112.742C181.713 112.649 182.123 112.599 182.577 112.599H183.905V111.861C183.905 111.397 183.765 111.032 183.476 110.765C183.194 110.497 182.777 110.364 182.23 110.364C181.98 110.364 181.749 110.397 181.538 110.468C181.326 110.535 181.143 110.628 180.991 110.748C180.839 110.869 180.714 111.008 180.629 111.168C180.546 111.326 180.502 111.497 180.502 111.674L179.783 111.669C179.783 111.426 179.843 111.186 179.961 110.957C180.081 110.731 180.249 110.527 180.468 110.351C180.685 110.172 180.947 110.029 181.252 109.921C181.556 109.81 181.894 109.756 182.265 109.756C182.608 109.756 182.922 109.8 183.215 109.891C183.502 109.975 183.749 110.11 183.957 110.283C184.164 110.462 184.328 110.68 184.439 110.943C184.556 111.209 184.613 111.518 184.613 111.871V115.016C184.613 115.132 184.618 115.245 184.628 115.365C184.638 115.485 184.65 115.602 184.666 115.712C184.685 115.826 184.703 115.932 184.73 116.037C184.755 116.139 184.783 116.227 184.813 116.303V116.379H184.047V116.379ZM181.797 115.861C182.055 115.861 182.297 115.826 182.516 115.761C182.741 115.696 182.94 115.603 183.118 115.486C183.296 115.37 183.453 115.237 183.585 115.082C183.717 114.927 183.823 114.76 183.902 114.578V113.149H182.676C182.309 113.149 181.981 113.182 181.693 113.247C181.403 113.315 181.158 113.412 180.957 113.532C180.757 113.658 180.605 113.809 180.5 113.987C180.393 114.166 180.34 114.368 180.34 114.589C180.34 114.768 180.373 114.93 180.443 115.083C180.51 115.239 180.607 115.372 180.733 115.486C180.857 115.602 181.009 115.695 181.189 115.757C181.371 115.826 181.571 115.861 181.797 115.861Z" fill="#F04E23"/>
<path d="M196.307 112.746C196.604 112.746 196.854 112.72 197.059 112.667C197.261 112.614 197.428 112.537 197.553 112.434C197.684 112.331 197.775 112.211 197.832 112.072C197.887 111.932 197.913 111.775 197.913 111.596C197.913 111.427 197.885 111.267 197.825 111.119C197.765 110.971 197.668 110.842 197.537 110.734C197.407 110.622 197.238 110.537 197.031 110.469C196.823 110.402 196.571 110.37 196.276 110.37C196.047 110.37 195.834 110.4 195.629 110.462C195.427 110.527 195.248 110.61 195.096 110.72C194.941 110.833 194.819 110.964 194.729 111.119C194.639 111.277 194.596 111.445 194.596 111.63H193.885C193.885 111.346 193.949 111.09 194.077 110.861C194.207 110.627 194.382 110.433 194.601 110.271C194.823 110.108 195.075 109.985 195.365 109.896C195.653 109.808 195.957 109.764 196.276 109.764C196.643 109.764 196.973 109.803 197.267 109.885C197.555 109.963 197.804 110.082 198.007 110.239C198.209 110.396 198.366 110.586 198.473 110.814C198.581 111.044 198.638 111.306 198.638 111.607C198.638 111.921 198.54 112.204 198.35 112.452C198.158 112.705 197.879 112.901 197.511 113.044C197.932 113.159 198.244 113.35 198.449 113.608C198.656 113.874 198.758 114.199 198.758 114.59C198.758 114.894 198.696 115.163 198.578 115.395C198.461 115.626 198.293 115.826 198.074 115.987C197.857 116.15 197.595 116.271 197.293 116.36C196.988 116.447 196.655 116.489 196.286 116.489C195.989 116.489 195.692 116.45 195.392 116.371C195.092 116.293 194.823 116.171 194.585 116.01C194.35 115.848 194.154 115.642 194.004 115.394C193.854 115.148 193.777 114.853 193.777 114.511H194.499C194.499 114.698 194.541 114.878 194.629 115.045C194.714 115.214 194.841 115.362 195.001 115.483C195.16 115.609 195.348 115.707 195.57 115.781C195.789 115.85 196.029 115.886 196.286 115.886C196.574 115.886 196.828 115.853 197.048 115.79C197.265 115.725 197.447 115.636 197.595 115.52C197.742 115.407 197.849 115.273 197.924 115.116C198.001 114.96 198.036 114.786 198.036 114.601C198.036 114.166 197.896 113.852 197.609 113.657C197.327 113.466 196.893 113.372 196.313 113.372H195.322V112.745H196.307V112.746Z" fill="#F04E23"/>
<path d="M212.166 109.876H212.885V116.377H212.166V111.033L208.673 116.377H207.959V109.876H208.673V115.223L212.166 109.876Z" fill="#F04E23"/>
<path d="M227.358 116.379H226.639V113.396H223.151V116.379H222.432V109.877H223.151V112.792H226.639V109.877H227.358V116.379Z" fill="#F04E23"/>
<path d="M237.649 112.237H239.507C239.889 112.237 240.226 112.289 240.521 112.395C240.816 112.497 241.063 112.641 241.265 112.826C241.465 113.005 241.618 113.223 241.72 113.476C241.822 113.728 241.872 114.001 241.872 114.298C241.872 114.593 241.822 114.868 241.72 115.121C241.618 115.372 241.465 115.591 241.265 115.781C241.063 115.964 240.816 116.112 240.521 116.22C240.226 116.322 239.886 116.377 239.507 116.377H236.938V109.877H237.649V112.237ZM237.649 112.851V115.771H239.507C239.805 115.771 240.057 115.73 240.269 115.646C240.478 115.564 240.648 115.458 240.781 115.321C240.908 115.19 241.007 115.034 241.066 114.856C241.124 114.677 241.156 114.496 241.156 114.308C241.156 114.129 241.125 113.952 241.066 113.777C241.004 113.602 240.908 113.445 240.781 113.306C240.648 113.17 240.478 113.058 240.269 112.974C240.057 112.89 239.805 112.848 239.507 112.848H237.649V112.851ZM244.069 116.379H243.35V109.877H244.069V116.379Z" fill="#F04E23"/>
<path d="M269.098 115.343L270.99 109.875H271.764L269.022 117.415C268.965 117.563 268.894 117.732 268.81 117.911C268.725 118.096 268.613 118.27 268.475 118.429C268.337 118.59 268.168 118.725 267.958 118.835C267.754 118.944 267.506 119 267.211 119C267.169 119 267.124 118.999 267.071 118.991C267.021 118.987 266.966 118.979 266.916 118.968C266.864 118.961 266.817 118.951 266.771 118.943C266.726 118.933 266.689 118.919 266.659 118.916L266.652 118.322C266.7 118.33 266.767 118.337 266.847 118.348C266.927 118.358 266.987 118.36 267.024 118.36C267.216 118.36 267.388 118.335 267.535 118.283C267.678 118.233 267.812 118.158 267.918 118.062C268.03 117.963 268.125 117.838 268.208 117.69C268.291 117.542 268.37 117.372 268.437 117.179L268.747 116.321L266.307 109.874H267.091L269.098 115.343Z" fill="black"/>
<path d="M293.819 116.379V109.877H296.194C296.588 109.877 296.943 109.912 297.255 109.985C297.567 110.055 297.84 110.16 298.059 110.301C298.281 110.442 298.449 110.625 298.566 110.842C298.683 111.06 298.744 111.318 298.744 111.614C298.744 111.94 298.644 112.226 298.451 112.484C298.254 112.737 297.969 112.922 297.595 113.038C297.812 113.078 298.007 113.148 298.18 113.242C298.351 113.337 298.499 113.456 298.62 113.589C298.741 113.728 298.836 113.876 298.899 114.046C298.968 114.214 299.001 114.39 299.001 114.577C299.001 114.875 298.941 115.141 298.829 115.365C298.715 115.59 298.552 115.776 298.347 115.926C298.135 116.077 297.882 116.189 297.59 116.264C297.297 116.341 296.968 116.381 296.607 116.381L293.819 116.379ZM294.53 112.782H296.343C296.903 112.775 297.324 112.674 297.607 112.482C297.886 112.286 298.031 112.002 298.031 111.631C298.031 111.238 297.876 110.944 297.567 110.764C297.257 110.582 296.8 110.49 296.194 110.49H294.53V112.782ZM294.53 113.385V115.777H296.608C297.145 115.777 297.559 115.67 297.854 115.464C298.142 115.255 298.287 114.954 298.287 114.561C298.287 114.2 298.142 113.915 297.854 113.704C297.559 113.492 297.145 113.385 296.608 113.385H294.53Z" fill="black"/>
<path d="M312.267 116.379C312.227 116.265 312.196 116.129 312.172 115.964C312.15 115.804 312.137 115.636 312.13 115.47C312.02 115.608 311.895 115.743 311.747 115.866C311.6 115.992 311.433 116.099 311.252 116.192C311.07 116.283 310.867 116.359 310.646 116.414C310.426 116.472 310.191 116.496 309.937 116.496C309.617 116.496 309.335 116.452 309.078 116.362C308.82 116.269 308.599 116.139 308.418 115.975C308.238 115.811 308.094 115.612 307.997 115.389C307.897 115.164 307.847 114.918 307.847 114.655C307.847 114.335 307.914 114.052 308.052 113.798C308.184 113.545 308.381 113.328 308.636 113.151C308.889 112.972 309.201 112.835 309.567 112.742C309.932 112.649 310.341 112.599 310.796 112.599H312.124V111.861C312.124 111.397 311.984 111.032 311.697 110.765C311.412 110.497 310.998 110.364 310.451 110.364C310.199 110.364 309.968 110.397 309.756 110.468C309.544 110.535 309.361 110.628 309.209 110.748C309.057 110.869 308.937 111.008 308.85 111.168C308.764 111.326 308.723 111.497 308.723 111.674L308.004 111.669C308.004 111.426 308.066 111.186 308.182 110.957C308.304 110.731 308.47 110.527 308.686 110.351C308.906 110.172 309.168 110.029 309.472 109.921C309.777 109.81 310.114 109.756 310.486 109.756C310.828 109.756 311.145 109.8 311.433 109.891C311.723 109.975 311.97 110.11 312.177 110.283C312.387 110.462 312.549 110.68 312.662 110.943C312.777 111.209 312.836 111.518 312.836 111.871V115.016C312.836 115.132 312.841 115.245 312.849 115.365C312.856 115.485 312.871 115.602 312.886 115.712C312.906 115.826 312.927 115.932 312.951 116.037C312.975 116.139 313.003 116.227 313.034 116.303V116.379H312.267V116.379ZM310.016 115.861C310.275 115.861 310.515 115.826 310.737 115.761C310.959 115.696 311.159 115.603 311.337 115.486C311.514 115.37 311.672 115.237 311.806 115.082C311.934 114.927 312.041 114.76 312.122 114.578V113.149H310.897C310.53 113.149 310.205 113.182 309.911 113.247C309.621 113.315 309.377 113.412 309.177 113.532C308.978 113.658 308.825 113.809 308.718 113.987C308.613 114.166 308.561 114.368 308.561 114.589C308.561 114.768 308.591 114.93 308.663 115.083C308.73 115.239 308.828 115.372 308.951 115.486C309.078 115.602 309.23 115.695 309.41 115.757C309.593 115.826 309.793 115.861 310.016 115.861Z" fill="black"/>
<path d="M324.735 115.889C324.964 115.889 325.179 115.858 325.389 115.792C325.599 115.724 325.784 115.628 325.948 115.499C326.113 115.372 326.246 115.215 326.35 115.025C326.458 114.837 326.52 114.617 326.536 114.371H327.222C327.207 114.68 327.129 114.961 326.992 115.223C326.857 115.482 326.671 115.707 326.448 115.898C326.221 116.085 325.963 116.231 325.664 116.337C325.372 116.444 325.06 116.495 324.731 116.495C324.279 116.495 323.877 116.414 323.537 116.248C323.195 116.08 322.906 115.853 322.673 115.559C322.44 115.269 322.264 114.923 322.144 114.529C322.025 114.135 321.968 113.71 321.968 113.251V113C321.968 112.546 322.025 112.118 322.144 111.722C322.264 111.331 322.434 110.987 322.668 110.694C322.898 110.406 323.19 110.177 323.535 110.006C323.877 109.838 324.274 109.755 324.727 109.755C325.075 109.755 325.396 109.809 325.691 109.92C325.988 110.028 326.248 110.182 326.472 110.381C326.694 110.582 326.869 110.824 327.003 111.113C327.134 111.397 327.208 111.716 327.225 112.071H326.539C326.52 111.805 326.462 111.569 326.363 111.36C326.268 111.152 326.136 110.975 325.978 110.827C325.815 110.679 325.628 110.562 325.416 110.488C325.201 110.408 324.971 110.369 324.729 110.369C324.357 110.369 324.045 110.441 323.789 110.584C323.532 110.73 323.318 110.921 323.156 111.17C322.991 111.411 322.875 111.694 322.801 112.012C322.724 112.327 322.689 112.656 322.689 113.001V113.255C322.689 113.606 322.724 113.938 322.801 114.256C322.875 114.576 322.991 114.852 323.153 115.097C323.315 115.341 323.525 115.531 323.788 115.68C324.047 115.82 324.364 115.889 324.735 115.889Z" fill="black"/>
<path d="M349.378 115.771C349.49 115.631 349.608 115.475 349.742 115.295C349.869 115.119 349.995 114.896 350.107 114.628C350.221 114.359 350.319 114.031 350.406 113.646C350.489 113.26 350.546 112.784 350.571 112.223L350.678 109.875H354.503V115.768H355.174V118.287H354.46V116.376H349.596V118.287H348.909L348.916 115.768L349.378 115.771ZM351.282 112.223C351.263 112.677 351.22 113.085 351.158 113.45C351.094 113.814 351.018 114.14 350.923 114.43C350.828 114.718 350.716 114.972 350.594 115.19C350.467 115.41 350.339 115.601 350.207 115.771H353.784V110.55H351.362L351.282 112.223Z" fill="black"/>
<path d="M363.742 113.03C363.742 112.557 363.814 112.121 363.952 111.719C364.087 111.321 364.282 110.975 364.536 110.686C364.785 110.394 365.09 110.165 365.445 110.001C365.797 109.836 366.194 109.755 366.63 109.755C367.07 109.755 367.472 109.836 367.829 110.001C368.186 110.165 368.491 110.392 368.743 110.686C368.993 110.971 369.188 111.321 369.322 111.719C369.457 112.121 369.526 112.56 369.526 113.03V113.229C369.526 113.701 369.457 114.137 369.322 114.538C369.189 114.939 368.993 115.281 368.743 115.574C368.491 115.861 368.186 116.09 367.832 116.256C367.477 116.417 367.08 116.495 366.641 116.495C366.201 116.495 365.803 116.417 365.448 116.256C365.091 116.09 364.789 115.865 364.537 115.574C364.282 115.284 364.087 114.939 363.952 114.538C363.814 114.137 363.742 113.699 363.742 113.229V113.03ZM364.461 113.23C364.461 113.586 364.511 113.924 364.606 114.248C364.704 114.571 364.839 114.851 365.025 115.094C365.206 115.335 365.435 115.527 365.707 115.677C365.983 115.82 366.291 115.891 366.642 115.891C366.994 115.891 367.304 115.82 367.573 115.677C367.842 115.53 368.068 115.339 368.254 115.094C368.437 114.851 368.578 114.568 368.673 114.248C368.769 113.924 368.816 113.586 368.816 113.23V113.031C368.816 112.682 368.769 112.347 368.673 112.025C368.578 111.704 368.438 111.421 368.254 111.175C368.069 110.933 367.842 110.738 367.568 110.589C367.294 110.442 366.983 110.37 366.63 110.37C366.285 110.37 365.976 110.442 365.704 110.589C365.435 110.736 365.209 110.931 365.025 111.175C364.843 111.421 364.701 111.705 364.606 112.025C364.511 112.348 364.461 112.682 364.461 113.031V113.23V113.23Z" fill="black"/>
<path d="M382.174 115.403L384.744 109.875H385.632V116.376H384.915V111.039L382.424 116.376H381.914L379.38 110.917V116.376H378.668V109.875H379.607L382.174 115.403Z" fill="black"/>
<path d="M399.235 116.379C399.192 116.265 399.158 116.129 399.14 115.964C399.115 115.804 399.102 115.636 399.095 115.47C398.987 115.608 398.86 115.743 398.712 115.866C398.567 115.992 398.398 116.099 398.22 116.192C398.032 116.283 397.832 116.359 397.613 116.414C397.391 116.472 397.156 116.496 396.901 116.496C396.585 116.496 396.3 116.452 396.04 116.362C395.785 116.269 395.566 116.139 395.383 115.975C395.203 115.807 395.059 115.612 394.962 115.389C394.862 115.164 394.812 114.918 394.812 114.655C394.812 114.335 394.881 114.052 395.017 113.798C395.149 113.545 395.347 113.328 395.601 113.151C395.854 112.972 396.166 112.835 396.532 112.742C396.897 112.649 397.308 112.599 397.763 112.599H399.091V111.861C399.091 111.397 398.948 111.032 398.662 110.765C398.379 110.497 397.963 110.364 397.416 110.364C397.163 110.364 396.933 110.397 396.721 110.468C396.512 110.535 396.331 110.628 396.174 110.748C396.022 110.869 395.902 111.008 395.815 111.168C395.729 111.326 395.687 111.497 395.687 111.674L394.97 111.669C394.97 111.426 395.03 111.186 395.148 110.957C395.27 110.731 395.436 110.527 395.653 110.351C395.872 110.172 396.134 110.029 396.44 109.921C396.744 109.81 397.079 109.756 397.451 109.756C397.793 109.756 398.113 109.8 398.4 109.891C398.688 109.975 398.938 110.11 399.145 110.283C399.352 110.462 399.514 110.68 399.627 110.943C399.747 111.209 399.801 111.518 399.801 111.871V115.016C399.801 115.132 399.806 115.245 399.814 115.365C399.823 115.486 399.836 115.602 399.854 115.712C399.873 115.826 399.892 115.932 399.918 116.037C399.94 116.139 399.966 116.227 399.999 116.303V116.379H399.235V116.379ZM396.981 115.861C397.24 115.861 397.48 115.826 397.702 115.761C397.926 115.696 398.126 115.603 398.304 115.486C398.484 115.37 398.639 115.237 398.773 115.082C398.903 114.927 399.006 114.76 399.09 114.578V113.149H397.864C397.495 113.149 397.167 113.182 396.876 113.247C396.591 113.315 396.342 113.412 396.142 113.532C395.943 113.658 395.79 113.809 395.683 113.987C395.581 114.166 395.523 114.368 395.523 114.589C395.523 114.768 395.559 114.93 395.628 115.083C395.695 115.239 395.79 115.372 395.916 115.486C396.042 115.602 396.195 115.695 396.375 115.757C396.558 115.826 396.758 115.861 396.981 115.861Z" fill="black"/>
<path d="M396.508 68.8643H378.828V76.5644H385.327C387.647 76.5644 389.739 76.8653 391.598 77.4647C393.456 78.0665 395.036 78.913 396.331 80.0053C397.626 81.0976 398.626 82.4175 399.323 83.9648C400.019 85.5122 400.369 87.2308 400.369 89.1268C400.369 91.0374 400.019 92.7781 399.323 94.3548C398.626 95.929 397.625 97.2819 396.331 98.4073C395.036 99.5363 393.457 100.416 391.598 101.043C389.738 101.671 387.65 101.985 385.327 101.985H370.584V62.2296H396.504V68.8643H396.508ZM378.828 83.1734V95.408H385.327C386.47 95.408 387.472 95.2392 388.333 94.9016C389.195 94.5664 389.914 94.1114 390.485 93.5389C391.054 92.964 391.479 92.2937 391.761 91.5292C392.043 90.7647 392.185 89.9451 392.185 89.0705C392.185 88.2338 392.045 87.4571 391.761 86.7366C391.482 86.0174 391.054 85.3935 390.485 84.8663C389.914 84.3391 389.195 83.9245 388.333 83.6248C387.472 83.3239 386.47 83.1734 385.327 83.1734H378.828V83.1734Z" fill="black"/>
<path d="M350.349 81.0157L357.558 62.2308H366.369L352.876 94.2068C352.407 95.3162 351.877 96.3755 351.289 97.3896C350.699 98.3975 349.98 99.2855 349.137 100.049C348.295 100.816 347.29 101.425 346.131 101.88C344.97 102.334 343.592 102.563 341.997 102.563C341.794 102.563 341.565 102.558 341.305 102.552C341.04 102.539 340.776 102.531 340.513 102.525C340.251 102.512 339.998 102.505 339.753 102.498C339.509 102.49 339.304 102.472 339.142 102.459L339.059 95.8752C339.169 95.896 339.323 95.9119 339.521 95.9303C339.723 95.9511 339.925 95.9633 340.137 95.9731C340.344 95.9817 340.544 95.989 340.732 95.989C340.922 95.989 341.072 95.989 341.181 95.989C341.962 95.989 342.619 95.9009 343.152 95.726C343.685 95.5523 344.137 95.304 344.498 94.9762C344.862 94.6471 345.16 94.2508 345.395 93.7872C345.63 93.3236 345.857 92.8001 346.076 92.2191L346.7 90.5787L332.807 62.2296H341.588L350.349 81.0157Z" fill="black"/>
<path d="M273.1 85.7409H268.396V101.986H260.238V62.2296H268.396V78.1485H272.125L281.806 62.2296H291.763L279.548 81.0426L293.041 101.988H283.303L273.1 85.7409Z" fill="black"/>
<path d="M241.295 65.0968H220.759V101.988H217.413V62.2296H241.297V65.0968H241.295Z" fill="black"/>
<path d="M169.593 62.2296V101.986H166.247V65.0968H149.519L148.783 80.1986C148.624 84.0566 148.346 87.3605 147.955 90.1115C147.562 92.8588 146.956 95.1132 146.132 96.8673C145.306 98.6262 144.224 99.9179 142.881 100.747C141.541 101.574 139.857 101.989 137.825 101.989H136.654V99.1498H137.687C139.03 99.1498 140.159 98.8513 141.075 98.2507C141.992 97.6477 142.748 96.6251 143.343 95.1792C143.94 93.7273 144.407 91.7897 144.733 89.3616C145.06 86.9299 145.305 83.8768 145.467 80.1998L146.34 62.2333L169.593 62.2296Z" fill="black"/>
<path d="M126.717 90.8466H108.738L104.658 101.986H101.145L116.134 62.2296H119.317L134.306 101.986H130.827L126.717 90.8466ZM109.773 87.9782H125.656L117.714 66.3249L109.773 87.9782Z" fill="black"/>
<path d="M64.2895 90.8466H46.3111L42.2317 101.986H38.7213L53.7096 62.2296H56.8885L71.8792 101.986H68.3981L64.2895 90.8466ZM47.3431 87.9782H63.2282L55.2838 66.3249L47.3431 87.9782Z" fill="black"/>
<path d="M101.065 65.0968H87.4901V101.988H84.1442V65.0968H70.5986V62.2296H101.065V65.0968V65.0968Z" fill="black"/>
<path d="M16.2554 83.3373H10.815V101.988H7.47037V62.2296H10.815V80.4701H16.0922L31.4033 62.2296H35.6179L19.3564 81.7802L36.8206 101.988H32.6559L16.2554 83.3373Z" fill="black"/>
<path d="M328.372 62.2296V101.986H320.185V68.8643H309.686L309.224 80.1411C309.043 84.1667 308.655 87.5647 308.067 90.3402C307.478 93.1181 306.644 95.3664 305.563 97.0972C304.485 98.8268 303.139 100.073 301.526 100.84C299.915 101.602 297.992 101.988 295.76 101.988H293.72V95.408H294.811C296.077 95.2808 297.095 94.9529 297.857 94.4233C298.618 93.8949 299.218 93.0496 299.654 91.8839C300.087 90.7194 300.394 89.1843 300.578 87.2822C300.758 85.3789 300.91 83.0009 301.042 80.1411L301.801 62.2284L328.372 62.2296Z" fill="black"/>
<path d="M208.953 84.267C208.953 87.0498 208.591 89.5659 207.863 91.8142C207.137 94.0649 206.109 95.9829 204.779 97.5645C203.443 99.1461 201.825 100.372 199.922 101.234C198.018 102.101 195.897 102.534 193.556 102.534C191.238 102.534 189.129 102.101 187.233 101.234C185.338 100.372 183.708 99.1461 182.352 97.5645C180.993 95.9829 179.939 94.0649 179.196 91.8142C178.454 89.5659 178.082 87.0498 178.082 84.267V80.0066C178.082 77.2213 178.454 74.699 179.196 72.441C179.938 70.1842 180.981 68.2601 182.323 66.6662C183.665 65.0736 185.281 63.8455 187.179 62.9795C189.072 62.1147 191.18 61.6816 193.502 61.6816C195.839 61.6816 197.962 62.1147 199.866 62.9795C201.77 63.8455 203.397 65.0724 204.752 66.6662C206.097 68.2601 207.137 70.1842 207.863 72.441C208.591 74.699 208.953 77.2201 208.953 80.0066V84.267ZM205.607 79.9515C205.607 77.6017 205.333 75.4831 204.791 73.5884C204.249 71.6973 203.458 70.09 202.426 68.7701C201.39 67.4515 200.124 66.4314 198.618 65.7121C197.112 64.9929 195.408 64.6345 193.507 64.6345C191.637 64.6345 189.956 64.9929 188.459 65.7121C186.961 66.4314 185.693 67.4515 184.651 68.7701C183.607 70.09 182.809 71.6985 182.259 73.5884C181.702 75.4819 181.423 77.6017 181.423 79.9515V84.267C181.423 86.6339 181.706 88.7635 182.268 90.6558C182.832 92.5494 183.639 94.1603 184.69 95.4887C185.737 96.8171 187.012 97.8348 188.51 98.5468C190.007 99.2587 191.689 99.6097 193.556 99.6097C195.478 99.6097 197.187 99.2587 198.684 98.5468C200.182 97.8348 201.44 96.8171 202.466 95.4887C203.49 94.1603 204.269 92.5494 204.806 90.6558C205.34 88.7635 205.607 86.6339 205.607 84.267V79.9515Z" fill="black"/>
</g>
<defs>
<clipPath id="clip0">
<rect width="400" height="119" fill="white"/>
</clipPath>
</defs>
</svg>
