<svg width="38" height="38" viewBox="0 0 38 38" fill="none" xmlns="http://www.w3.org/2000/svg">
<g clip-path="url(#clip0)">
<path d="M19.0155 31.709H19.0066C18.8122 31.7111 18.6289 31.7883 18.4908 31.9264C18.3506 32.0667 18.2734 32.253 18.2734 32.4512C18.2734 32.8601 18.6067 33.1934 19.0155 33.1934H19.0163C19.4252 33.1934 19.7577 32.8601 19.7577 32.4512C19.7577 32.0415 19.4252 31.709 19.0155 31.709Z" fill="white"/>
<path d="M16.6015 31.8787C16.4694 31.7311 16.2869 31.645 16.0888 31.6345C13.2598 31.4891 10.4234 31.1298 7.65753 30.5665L7.58554 30.5524C7.53953 30.5436 7.49195 30.5391 7.44527 30.5391C7.08976 30.5391 6.78405 30.7921 6.71659 31.141C6.67948 31.3362 6.71956 31.5336 6.83089 31.6976C6.94221 31.8616 7.11062 31.973 7.30507 32.0101L7.36147 32.0211C10.2 32.5993 13.1106 32.9674 16.0131 33.1167C16.0249 33.1174 16.0383 33.1182 16.0517 33.1182C16.4464 33.1182 16.7714 32.8087 16.7923 32.4138C16.8019 32.2157 16.7344 32.0257 16.6015 31.8787Z" fill="white"/>
<path d="M31.2861 31.1405C31.2191 30.7909 30.9127 30.5371 30.558 30.5371C30.5111 30.5371 30.4637 30.5416 30.4177 30.5505L30.3435 30.5646C27.588 31.1257 24.762 31.4841 21.945 31.6311C21.7468 31.6415 21.5643 31.7283 21.4322 31.8753C21.2993 32.0222 21.2318 32.213 21.2423 32.4104C21.263 32.8052 21.5881 33.1139 21.9829 33.1139C21.997 33.1139 22.0096 33.1139 22.0222 33.1132C24.9135 32.9625 27.8137 32.5944 30.6412 32.0192L30.6961 32.0081C30.8913 31.971 31.0598 31.8604 31.1711 31.6964C31.2824 31.5324 31.3232 31.335 31.2861 31.1405Z" fill="white"/>
<path d="M28.6493 15.1973C28.2397 15.1973 27.9072 15.5305 27.9072 15.9395C27.9072 16.3484 28.2397 16.6816 28.6493 16.6816C29.0582 16.6816 29.3914 16.3484 29.3914 15.9395C29.3914 15.5305 29.0582 15.1973 28.6493 15.1973Z" fill="white"/>
<path d="M25.6775 15.1973H9.351C8.94213 15.1973 8.60889 15.5305 8.60889 15.9395C8.60889 16.3484 8.94213 16.6816 9.351 16.6816H25.6775C26.0864 16.6816 26.4196 16.3484 26.4196 15.9395C26.4196 15.5305 26.0864 15.1973 25.6775 15.1973Z" fill="white"/>
<path d="M37.5144 27.9528C37.1829 27.2069 36.8361 26.4522 36.5009 25.7224C35.017 22.4919 33.4824 19.1514 32.9048 15.7684C32.577 13.9541 31.1963 12.5807 29.5016 12.2875C29.1799 10.5667 27.6677 9.25975 25.855 9.25975H21.2268V7.68142C22.5056 7.351 23.4531 6.1874 23.4531 4.80664C23.4531 3.16967 22.1214 1.83789 20.4847 1.83789C19.944 1.83789 19.4371 1.98388 19 2.23756C18.5631 1.98395 18.0566 1.83789 17.5161 1.83789C15.8793 1.83789 14.5477 3.16967 14.5477 4.80664C14.5477 6.1874 15.4952 7.351 16.774 7.68142V9.25975H12.1458C10.3332 9.25975 8.82098 10.5666 8.49932 12.2874C6.80483 12.5804 5.42377 13.9547 5.09484 15.7755C4.51845 19.1517 2.98384 22.4924 1.49969 25.7231C1.16459 26.4527 0.817988 27.2072 0.486528 27.9528C-0.141436 29.3651 -0.16103 30.6413 0.428489 31.7456C1.48291 33.7212 4.18566 34.5679 6.27061 34.9305C10.4511 35.7465 14.7339 36.1603 19.0005 36.1603C23.2671 36.1603 27.5497 35.7466 31.7302 34.9306C33.8151 34.5681 36.518 33.7213 37.5725 31.7458C38.162 30.6415 38.1424 29.3652 37.5144 27.9528ZM20.4847 3.32226C21.3031 3.32226 21.969 3.98815 21.969 4.80664C21.969 5.62512 21.3031 6.29101 20.4847 6.29101C19.6663 6.29101 19.0005 5.62512 19.0005 4.80664C19.0005 3.98815 19.6663 3.32226 20.4847 3.32226ZM18.2584 7.6806C18.5215 7.61247 18.7707 7.50945 19.0004 7.37616C19.2302 7.50953 19.4792 7.61336 19.7426 7.68142V9.25975H18.2584V7.6806ZM16.0321 4.80664C16.0321 3.98815 16.6979 3.32226 17.5163 3.32226C17.6448 3.32226 17.7691 3.33941 17.8878 3.37058C17.6514 3.79645 17.5163 4.28599 17.5163 4.80664C17.5163 5.32735 17.6511 5.81712 17.8876 6.24299C17.7688 6.27371 17.6445 6.29101 17.5163 6.29101C16.6979 6.29101 16.0321 5.62512 16.0321 4.80664ZM12.1458 10.7441H25.8551C26.8226 10.7441 27.6475 11.3647 27.9538 12.2285H10.0471C10.3535 11.3647 11.1784 10.7441 12.1458 10.7441ZM36.2632 31.0469C35.4183 32.6294 32.6291 33.2682 31.469 33.4694C31.4639 33.4703 31.4587 33.4712 31.4536 33.4722C27.3643 34.2709 23.1744 34.6759 19.0005 34.6759C14.8266 34.6759 10.6367 34.2709 6.54744 33.4722C6.54232 33.4711 6.53713 33.4702 6.532 33.4693C5.37197 33.2681 2.58261 32.6293 1.73785 31.0466C1.3698 30.3571 1.40409 29.5423 1.8428 28.5558C2.17062 27.8184 2.51522 27.0682 2.84846 26.3428C4.37261 23.0248 5.94865 19.5939 6.55664 16.0323C6.76483 14.8797 7.73167 13.7128 9.1773 13.7128H28.8243C30.2692 13.7128 31.236 14.8797 31.443 16.0252C32.0521 19.5936 33.6281 23.0243 35.1521 26.3421C35.4855 27.0678 35.8302 27.8183 36.1581 28.5559C36.5969 29.5424 36.6311 30.3573 36.2632 31.0469Z" fill="white"/>
</g>
<defs>
<clipPath id="clip0">
<rect width="38" height="38" fill="white"/>
</clipPath>
</defs>
</svg>
