<svg width="38" height="38" viewBox="0 0 38 38" fill="none" xmlns="http://www.w3.org/2000/svg">
<g clip-path="url(#clip0)">
<path d="M37.615 8.21821L22.8153 0.0915413C22.5929 -0.0305138 22.3233 -0.0305138 22.1009 0.0915413L16.5226 3.15452C16.4049 3.18554 16.295 3.24468 16.204 3.32962L7.30153 8.21821C7.06409 8.34838 6.91652 8.59771 6.91652 8.86878V18.6975C5.41475 19.1672 4.03851 19.9955 2.89421 21.1401C-0.0884601 24.1225 -0.848913 28.6713 1.00192 32.459C1.18167 32.8272 1.62611 32.98 1.9943 32.8C2.36279 32.6199 2.51529 32.1755 2.33554 31.8073C0.763027 28.5889 1.40925 24.7241 3.94371 22.1896C5.52868 20.6046 7.6358 19.7317 9.87715 19.7317C12.1185 19.7317 14.2256 20.6046 15.8106 22.1896C17.3953 23.7743 18.2682 25.8814 18.2682 28.1228C18.2682 30.3641 17.3953 32.4712 15.8103 34.0562C13.2759 36.5906 9.41096 37.2369 6.1926 35.6644C5.8244 35.4843 5.37996 35.6371 5.20021 36.0053C5.02017 36.3738 5.17267 36.8182 5.54115 36.998C6.92087 37.6723 8.40118 37.9999 9.87077 37.9999C12.4345 37.9996 14.964 37.0018 16.8601 35.1057C17.7296 34.2362 18.4167 33.2331 18.9029 32.1427L22.1009 33.8988C22.2123 33.9599 22.3352 33.9904 22.4581 33.9904C22.581 33.9904 22.7042 33.9599 22.8153 33.8988L37.615 25.7724C37.8524 25.6419 38 25.3926 38 25.1218V19.9639C38 19.554 37.6677 19.2217 37.2578 19.2217C36.8479 19.2217 36.5156 19.554 36.5156 19.9639V24.6826L23.2026 31.9929V17.4332L27.5963 15.0205V18.8451C27.5963 19.1078 27.7349 19.3507 27.9607 19.4841C28.0773 19.5528 28.2077 19.5873 28.3385 19.5873C28.4614 19.5873 28.5846 19.5569 28.6963 19.4954L31.8677 17.7498C32.1048 17.6193 32.2518 17.3703 32.2518 17.0998V12.464L36.5156 10.123V14.0267C36.5156 14.4366 36.8479 14.7689 37.2578 14.7689C37.6677 14.7689 38 14.4366 38 14.0267V8.86878C38 8.598 37.8524 8.34838 37.615 8.21821ZM22.4581 1.58867L35.7157 8.86878L31.5337 11.1652L18.2761 3.88511L22.4581 1.58867ZM22.4581 16.1486L9.20049 8.86878L13.5359 6.48798L26.7938 13.7678L22.4581 16.1486ZM28.3356 12.9212L15.078 5.64142L16.734 4.73195L29.9919 12.0118L28.3356 12.9212ZM16.8601 21.1401C14.9948 19.2748 12.5148 18.2476 9.87715 18.2476C9.3782 18.2476 8.88535 18.2844 8.40089 18.3566V10.123L21.7185 17.4358V31.9955L19.407 30.7262C19.6346 29.8883 19.7523 29.0145 19.7523 28.1228C19.7523 25.4851 18.7251 23.0051 16.8601 21.1401ZM30.7677 16.6612L29.0807 17.5898V14.2056L30.7677 13.2793V16.6612Z" fill="white"/>
<path d="M3.42234 35.3255C3.21128 35.3255 3.00167 35.2356 2.85526 35.0614L2.85381 35.0596C2.58999 34.746 2.63057 34.278 2.94426 34.0142C3.25795 33.7501 3.72617 33.7907 3.98999 34.1044C4.25353 34.4184 4.21381 34.8871 3.90012 35.151C3.76067 35.2681 3.59107 35.3255 3.42234 35.3255Z" fill="white"/>
<path d="M7.3826 28.865C7.57249 28.865 7.76268 28.7926 7.90735 28.6479C8.19726 28.358 8.19726 27.888 7.90735 27.5981L7.39332 27.0838H11.7798C12.8438 27.0838 13.7095 27.9495 13.7095 29.0135C13.7095 30.0775 12.8438 30.9432 11.7798 30.9432H9.18066C8.77072 30.9432 8.43847 31.2754 8.43847 31.6854C8.43847 32.095 8.77072 32.4273 9.18066 32.4273H11.7798C13.6622 32.4273 15.1938 30.8959 15.1938 29.0135C15.1938 27.131 13.6622 25.5997 11.7798 25.5997H7.39332L7.90735 25.0854C8.19726 24.7955 8.19726 24.3255 7.90735 24.0356C7.61772 23.746 7.14776 23.746 6.85785 24.0356L5.0766 25.8168C4.78697 26.1068 4.78697 26.5767 5.0766 26.8666L6.85785 28.6476C7.0028 28.7926 7.1927 28.865 7.3826 28.865Z" fill="white"/>
<path d="M37.2578 16.25C37.0627 16.25 36.8711 16.3294 36.7331 16.4674C36.5951 16.6054 36.5156 16.7968 36.5156 16.9922C36.5156 17.1873 36.5951 17.3786 36.7331 17.5167C36.8711 17.6549 37.0627 17.7341 37.2578 17.7341C37.4529 17.7341 37.6446 17.6549 37.7826 17.5167C37.9206 17.3786 38 17.1873 38 16.9922C38 16.7968 37.9206 16.6054 37.7826 16.4674C37.6446 16.3294 37.4529 16.25 37.2578 16.25Z" fill="white"/>
</g>
<defs>
<clipPath id="clip0">
<rect width="38" height="38" fill="white"/>
</clipPath>
</defs>
</svg>
