<svg width="38" height="38" viewBox="0 0 38 38" fill="none" xmlns="http://www.w3.org/2000/svg">
<g clip-path="url(#clip0)">
<path d="M23.4531 19.2969C23.0435 19.2969 22.7109 19.6294 22.7109 20.0391C22.7109 20.4487 23.0435 20.7812 23.4531 20.7812C23.8628 20.7812 24.1953 20.4487 24.1953 20.0391C24.1953 19.6294 23.8628 19.2969 23.4531 19.2969Z" fill="white"/>
<path d="M7.58371 27.445L0.161832 36.7966C-0.0153075 37.0195 -0.0489378 37.3242 0.0748567 37.5805C0.198651 37.8371 0.458417 38 0.743115 38H37.2587C37.5434 38 37.8032 37.8371 37.927 37.5805C38.0511 37.3242 38.0172 37.0195 37.84 36.7966L30.4181 27.445C30.2775 27.2676 30.0633 27.1641 29.8369 27.1641H23.3355L28.8859 18.4584C30.188 16.5064 30.8759 14.23 30.8759 11.875C30.8759 5.32722 25.549 0 19.0009 0C12.4529 0 7.12593 5.32722 7.12593 11.875C7.12593 14.23 7.8139 16.5061 9.11592 18.4584L14.6664 27.1641H8.16499C7.93857 27.1641 7.72461 27.2676 7.58371 27.445ZM4.81268 33.3242H9.30031L6.76759 36.5156H2.27968L4.81268 33.3242ZM15.613 28.6484L17.6476 31.8398H12.3734L14.9064 28.6484H15.613ZM22.3892 28.6484H23.0957L25.6284 31.8398H20.3546L22.3892 28.6484ZM26.8067 33.3242L29.3394 36.5156H8.66249L11.1955 33.3242H26.8067ZM31.2346 36.5156L28.7016 33.3242H33.1895L35.7222 36.5156H31.2346ZM32.0112 31.8398H27.5236L24.9906 28.6484H29.4785L32.0112 31.8398ZM10.355 17.6409C9.21362 15.9321 8.6103 13.9383 8.6103 11.875C8.6103 6.14566 13.2716 1.48438 19.0009 1.48438C24.7303 1.48438 29.3916 6.14566 29.3916 11.875C29.3916 13.9383 28.7882 15.9321 27.6471 17.6409C27.6439 17.6452 27.6413 17.6496 27.6384 17.6539C27.1511 18.4184 19.3764 30.6129 19.0009 31.2014C18.0567 29.7203 11.3251 19.1621 10.3634 17.6539C10.3608 17.6496 10.3579 17.6452 10.355 17.6409ZM13.0112 28.6484L10.4785 31.8398H5.99061L8.52362 28.6484H13.0112Z" fill="white"/>
<path d="M22.1265 21.8293C21.7757 21.6177 21.3193 21.7308 21.1077 22.0818L18.3645 26.633C18.1528 26.984 18.2659 27.4401 18.617 27.6517C18.9695 27.8642 19.425 27.7488 19.6358 27.3992L22.379 22.8481C22.5906 22.497 22.4775 22.041 22.1265 21.8293Z" fill="white"/>
<path d="M19 19.2969C23.0745 19.2969 26.4219 15.9973 26.4219 11.875C26.4219 7.78253 23.0925 4.45312 19 4.45312C14.9075 4.45312 11.5781 7.78253 11.5781 11.875C11.5781 15.9985 14.9267 19.2969 19 19.2969ZM19 5.9375C22.274 5.9375 24.9375 8.60097 24.9375 11.875C24.9375 15.1795 22.2526 17.8125 19 17.8125C15.7466 17.8125 13.0625 15.1795 13.0625 11.875C13.0625 8.60097 15.726 5.9375 19 5.9375Z" fill="white"/>
</g>
<defs>
<clipPath id="clip0">
<rect width="38" height="38" fill="white"/>
</clipPath>
</defs>
</svg>
