<svg width="45" height="50" viewBox="0 0 45 50" fill="none" xmlns="http://www.w3.org/2000/svg">
<path d="M22.6529 27.2879C22.5604 27.2679 22.4655 27.2643 22.3718 27.2783C21.4327 27.169 20.7243 26.3745 20.7227 25.4294C20.7227 24.9765 20.3555 24.6092 19.9025 24.6092C19.4496 24.6092 19.0824 24.9765 19.0824 25.4294C19.0848 27.0076 20.1404 28.39 21.6622 28.8077V29.6278C21.6622 30.0807 22.0294 30.448 22.4823 30.448C22.9352 30.448 23.3025 30.0807 23.3025 29.6278V28.8573C25.0589 28.4897 26.2527 26.8538 26.068 25.069C25.883 23.2841 24.3793 21.9277 22.5848 21.9273C21.5564 21.9273 20.7227 21.0936 20.7227 20.0652C20.7227 19.0368 21.5564 18.2031 22.5848 18.2031C23.6132 18.2031 24.447 19.0368 24.447 20.0652C24.447 20.5181 24.8142 20.8853 25.2671 20.8853C25.72 20.8853 26.0873 20.5181 26.0873 20.0652C26.0849 18.4081 24.9239 16.9788 23.3025 16.6369V15.8904C23.3025 15.4375 22.9352 15.0702 22.4823 15.0702C22.0294 15.0702 21.6622 15.4375 21.6622 15.8904V16.6869C19.9698 17.149 18.8806 18.7921 19.1136 20.5309C19.3467 22.2697 20.8304 23.5676 22.5848 23.5672C23.5996 23.5672 24.4274 24.3798 24.4458 25.3941C24.4646 26.4085 23.6669 27.2511 22.6529 27.2879Z" fill="black"/>
<path d="M10.6919 22.8105C10.6919 29.3789 16.0165 34.7034 22.5848 34.7034C29.1532 34.7034 34.4777 29.3789 34.4777 22.8105C34.4777 16.2421 29.1532 10.9176 22.5848 10.9176C16.0197 10.9248 10.6995 16.2453 10.6919 22.8105ZM22.5848 12.5579C28.2473 12.5579 32.8374 17.148 32.8374 22.8105C32.8374 28.473 28.2473 33.0631 22.5848 33.0631C16.9223 33.0631 12.3322 28.473 12.3322 22.8105C12.3386 17.1508 16.9251 12.5643 22.5848 12.5579Z" fill="black"/>
<path d="M38.5207 36.7252L32.0961 39.7607C31.2091 38.1108 29.5075 37.0607 27.635 37.0079L21.7041 36.8449C20.765 36.8181 19.8436 36.5802 19.0086 36.1489L18.4051 35.8361C15.3152 34.2255 11.6321 34.2295 8.54537 35.8465L8.58302 34.4794C8.59543 34.0265 8.23862 33.6492 7.7857 33.6368L1.28221 33.4578C0.82929 33.4454 0.452456 33.8022 0.440042 34.2551L0.0471894 48.5267C0.0347751 48.9797 0.391586 49.3569 0.844507 49.3693L7.34799 49.5483H7.37042C7.81493 49.5483 8.17855 49.1947 8.19057 48.7506L8.20939 48.0678L9.89893 47.1632C10.5621 46.8064 11.3374 46.7215 12.0618 46.9265L22.151 49.7582C22.1687 49.7634 22.1863 49.7674 22.2043 49.7714C22.9335 49.924 23.6768 50.0004 24.4217 50C25.9995 50.0008 27.5589 49.6609 28.9929 49.0025C29.0282 48.9865 29.0622 48.9677 29.0946 48.9464L43.7231 39.4843C44.0875 39.2485 44.2052 38.7699 43.9918 38.3919C42.9057 36.4649 40.497 35.7308 38.5207 36.7252ZM1.7095 47.7523L2.0571 35.1201L6.9207 35.2539L6.5731 47.8864L1.7095 47.7523ZM28.2541 47.5376C26.4724 48.3417 24.4825 48.5636 22.5675 48.1723L12.5055 45.3479C11.373 45.0279 10.1608 45.1605 9.12484 45.7175L8.26145 46.18L8.49251 37.7812C11.2285 35.9615 14.7373 35.7745 17.6511 37.2926L18.2546 37.6054C19.3094 38.15 20.4727 38.4503 21.6593 38.4848L27.5905 38.6478C29.2564 38.6958 30.6712 39.882 31.0092 41.5143L22.1747 41.2704C21.7217 41.258 21.3449 41.6152 21.3321 42.0677C21.3197 42.5206 21.6769 42.8979 22.1294 42.9103L31.879 43.1786H31.9019C32.346 43.1782 32.7092 42.8246 32.7212 42.3809C32.7312 42.0245 32.7048 41.6676 32.6419 41.3168L39.2315 38.2033C39.2379 38.2005 39.2443 38.1973 39.2507 38.194C40.1854 37.7211 41.3155 37.8793 42.0844 38.5909L28.2541 47.5376Z" fill="black"/>
<path d="M29.5558 8.61161V4.92096C29.5558 4.46804 29.1886 4.10081 28.7357 4.10081C28.2828 4.10081 27.9155 4.46804 27.9155 4.92096V8.61161C27.9155 9.06453 28.2828 9.43175 28.7357 9.43175C29.1886 9.43175 29.5558 9.06453 29.5558 8.61161Z" fill="black"/>
<path d="M17.2538 8.61161V4.92096C17.2538 4.46804 16.8866 4.10081 16.4337 4.10081C15.9808 4.10081 15.6135 4.46804 15.6135 4.92096V8.61161C15.6135 9.06453 15.9808 9.43175 16.4337 9.43175C16.8866 9.43175 17.2538 9.06453 17.2538 8.61161Z" fill="black"/>
<path d="M23.405 8.61152V0.820144C23.405 0.367223 23.0377 0 22.5848 0C22.1319 0 21.7647 0.367223 21.7647 0.820144V8.61152C21.7647 9.06444 22.1319 9.43166 22.5848 9.43166C23.0377 9.43166 23.405 9.06444 23.405 8.61152Z" fill="black"/>
</svg>
