<svg width="24" height="22" viewBox="0 0 24 22" fill="none" xmlns="http://www.w3.org/2000/svg">
<path d="M17.625 0.40625C16.3227 0.40625 15.1287 0.818937 14.0762 1.63287C13.0673 2.4132 12.3955 3.40709 12 4.12981C11.6045 3.40705 10.9327 2.4132 9.92377 1.63287C8.87133 0.818937 7.67733 0.40625 6.375 0.40625C2.74069 0.40625 0 3.37892 0 7.32097C0 11.5798 3.4192 14.4935 8.59542 18.9046C9.47442 19.6537 10.4707 20.5028 11.5063 21.4084C11.6428 21.5279 11.8181 21.5938 12 21.5938C12.1819 21.5938 12.3572 21.5279 12.4937 21.4085C13.5293 20.5027 14.5256 19.6537 15.4051 18.9042C20.5808 14.4935 24 11.5798 24 7.32097C24 3.37892 21.2593 0.40625 17.625 0.40625Z" fill="#F04E23"/>
</svg>
