<svg width="44" height="38" viewBox="0 0 44 38" fill="none" xmlns="http://www.w3.org/2000/svg">
<path d="M43.2327 29.1485L40.1832 22.8812C40.0968 22.705 39.9441 22.5701 39.7586 22.5061C39.5731 22.4421 39.3698 22.4542 39.1931 22.5396L32.9455 25.5842C32.8578 25.6271 32.7793 25.6868 32.7147 25.7601C32.65 25.8333 32.6004 25.9185 32.5687 26.0109C32.537 26.1033 32.5237 26.2011 32.5298 26.2986C32.5359 26.3961 32.5611 26.4914 32.604 26.5792C32.6469 26.667 32.7066 26.7454 32.7799 26.8101C32.8531 26.8748 32.9383 26.9244 33.0307 26.9561C33.1231 26.9878 33.2209 27.001 33.3184 26.995C33.4159 26.9889 33.5112 26.9637 33.599 26.9208L38.0891 24.7277C36.8344 28.2623 34.4511 31.2856 31.3071 33.3308C28.1632 35.376 24.4334 36.3295 20.6936 36.0439C16.9538 35.7584 13.412 34.2497 10.615 31.7509C7.81801 29.252 5.92134 25.9019 5.21783 22.2178C5.19962 22.1203 5.16239 22.0273 5.10826 21.9442C5.05412 21.8611 4.98414 21.7894 4.90232 21.7333C4.82049 21.6773 4.72842 21.6378 4.63136 21.6173C4.5343 21.5968 4.43415 21.5957 4.33664 21.6139C4.23912 21.6321 4.14615 21.6693 4.06302 21.7234C3.97989 21.7776 3.90824 21.8476 3.85216 21.9294C3.79608 22.0112 3.75666 22.1033 3.73616 22.2003C3.71566 22.2974 3.71448 22.3975 3.73268 22.4951C4.49131 26.531 6.56643 30.2017 9.63338 32.9327C12.7003 35.6637 16.5861 37.3011 20.6827 37.5885C24.7792 37.8759 28.8556 36.7973 32.2738 34.5213C35.6921 32.2453 38.2595 28.9004 39.5743 25.0099L41.901 29.7772C41.9611 29.9035 42.0558 30.0101 42.1741 30.0846C42.2924 30.1591 42.4295 30.1984 42.5693 30.198C42.6814 30.1982 42.7919 30.171 42.8911 30.1188C43.0623 30.0325 43.1934 29.8833 43.2571 29.7024C43.3208 29.5215 43.312 29.3231 43.2327 29.1485Z" fill="black"/>
<path d="M21.2575 29.8911V33.3564C21.2575 33.5534 21.3357 33.7423 21.475 33.8815C21.6142 34.0208 21.8031 34.099 22 34.099C22.197 34.099 22.3859 34.0208 22.5251 33.8815C22.6644 33.7423 22.7426 33.5534 22.7426 33.3564V29.8911C22.7426 29.6941 22.6644 29.5053 22.5251 29.366C22.3859 29.2268 22.197 29.1485 22 29.1485C21.8031 29.1485 21.6142 29.2268 21.475 29.366C21.3357 29.5053 21.2575 29.6941 21.2575 29.8911Z" fill="black"/>
<path d="M13.7873 25.9109L11.3368 28.3861C11.2131 28.529 11.148 28.7134 11.1548 28.9023C11.1616 29.0912 11.2396 29.2705 11.3733 29.4041C11.5069 29.5378 11.6862 29.6158 11.8751 29.6226C12.064 29.6294 12.2484 29.5643 12.3913 29.4406L14.8418 26.9653C14.9656 26.8225 15.0306 26.638 15.0238 26.4491C15.0171 26.2603 14.939 26.0809 14.8054 25.9473C14.6717 25.8137 14.4924 25.7356 14.3035 25.7288C14.1146 25.7221 13.9302 25.7871 13.7873 25.9109Z" fill="black"/>
<path d="M30.1684 19C30.1684 18.8031 30.0901 18.6142 29.9509 18.4749C29.8116 18.3357 29.6227 18.2574 29.4258 18.2574H22.7426V8.10892C22.7426 7.91198 22.6644 7.7231 22.5251 7.58384C22.3859 7.44458 22.197 7.36635 22 7.36635C21.8031 7.36635 21.6142 7.44458 21.475 7.58384C21.3357 7.7231 21.2575 7.91198 21.2575 8.10892V19C21.2575 19.197 21.3357 19.3858 21.475 19.5251C21.6142 19.6643 21.8031 19.7426 22 19.7426H29.4258C29.6227 19.7426 29.8116 19.6643 29.9509 19.5251C30.0901 19.3858 30.1684 19.197 30.1684 19Z" fill="black"/>
<path d="M4.55939 15.9357C4.67085 15.9352 4.78079 15.9098 4.88117 15.8614L11.1287 12.8119C11.2909 12.7177 11.4115 12.5656 11.4661 12.3862C11.5208 12.2067 11.5055 12.0133 11.4234 11.8446C11.3413 11.676 11.1984 11.5447 11.0234 11.4771C10.8484 11.4095 10.6544 11.4106 10.4802 11.4802L5.73266 13.802C6.84075 10.344 9.02182 7.32904 11.9594 5.19454C14.897 3.06003 18.4383 1.91703 22.0694 1.93137C25.7006 1.94572 29.2327 3.11667 32.1533 5.27432C35.074 7.43197 37.2311 10.4641 38.3119 13.9307C38.5003 14.5386 38.654 15.1568 38.7723 15.7822C38.8064 15.9504 38.8973 16.1018 39.0298 16.2108C39.1623 16.3199 39.3284 16.3801 39.5 16.3812H39.6435C39.8361 16.3417 40.0055 16.2284 40.1156 16.0656C40.2257 15.9027 40.2677 15.7033 40.2327 15.5099C40.1058 14.8409 39.9405 14.1797 39.7376 13.5297C38.581 9.73068 36.231 6.40544 33.036 4.04689C29.8411 1.68834 25.9712 0.422031 22 0.435656C18.1049 0.449689 14.3118 1.68205 11.1523 3.96004C7.99274 6.23803 5.6251 9.44748 4.38117 13.1386L2.1782 8.62377C2.14032 8.52899 2.0833 8.44303 2.0107 8.37127C1.93811 8.29951 1.8515 8.24349 1.75628 8.2067C1.66107 8.16992 1.55929 8.15315 1.4573 8.15747C1.35532 8.16178 1.25532 8.18707 1.16355 8.23176C1.07177 8.27645 0.990202 8.33959 0.923923 8.41722C0.857644 8.49485 0.808082 8.58531 0.778332 8.68295C0.748582 8.7806 0.739283 8.88333 0.751015 8.98473C0.762747 9.08613 0.795259 9.18402 0.846521 9.27229L3.89107 15.5198C3.95231 15.6448 4.04744 15.75 4.1656 15.8236C4.28377 15.8971 4.42022 15.9359 4.55939 15.9357Z" fill="black"/>
</svg>
