<svg width="24" height="16" viewBox="0 0 24 16" fill="none" xmlns="http://www.w3.org/2000/svg">
<path d="M23.8475 7.53311C23.6331 7.23982 18.5245 0.351562 11.9999 0.351562C5.47529 0.351562 0.366469 7.23982 0.152297 7.53283C-0.0507657 7.81108 -0.0507657 8.18847 0.152297 8.46673C0.366469 8.76002 5.47529 15.6483 11.9999 15.6483C18.5245 15.6483 23.6331 8.75998 23.8475 8.46696C24.0508 8.18876 24.0508 7.81108 23.8475 7.53311ZM11.9999 14.0659C7.19383 14.0659 3.03127 9.49399 1.79907 7.99938C3.02968 6.50345 7.18351 1.93397 11.9999 1.93397C16.8057 1.93397 20.968 6.50505 22.2007 8.00046C20.9701 9.49634 16.8163 14.0659 11.9999 14.0659Z" fill="#B3B3B3"/>
<path d="M12.0002 3.25265C9.38257 3.25265 7.2529 5.38232 7.2529 7.99992C7.2529 10.6175 9.38257 12.7472 12.0002 12.7472C14.6178 12.7472 16.7474 10.6175 16.7474 7.99992C16.7474 5.38232 14.6178 3.25265 12.0002 3.25265ZM12.0002 11.1647C10.255 11.1647 8.83536 9.74504 8.83536 7.99992C8.83536 6.25481 10.2551 4.8351 12.0002 4.8351C13.7453 4.8351 15.165 6.25481 15.165 7.99992C15.165 9.74504 13.7453 11.1647 12.0002 11.1647Z" fill="#B3B3B3"/>
</svg>
